<svg width="332" height="187" viewBox="0 0 332 187" fill="none" xmlns="http://www.w3.org/2000/svg">
<mask id="mask0_306_59" style="mask-type:luminance" maskUnits="userSpaceOnUse" x="0" y="0" width="332" height="187">
<path d="M332 0H0V187H332V0Z" fill="white"/>
</mask>
<g mask="url(#mask0_306_59)">
<path d="M85.7653 100.599H80.2604L70.2805 85.3641C69.6951 84.4735 69.2898 83.8028 69.0647 83.3519H68.9971C69.0872 84.2086 69.1322 85.5162 69.1322 87.2748V100.599H63.9819V76.3516H69.8583L79.4667 91.1131C79.9057 91.7782 80.311 92.4377 80.6825 93.0915H80.7501C80.66 92.5278 80.615 91.4175 80.615 89.7604V76.3516H85.7653V100.599Z" fill="white"/>
<path d="M112.598 100.599H106.654L104.931 95.2051H96.3193L94.6138 100.599H88.7035L97.5182 76.3516H103.986L112.598 100.599ZM103.682 91.0117L101.081 82.8615C100.89 82.2528 100.755 81.5257 100.676 80.6803H100.541C100.485 81.3905 100.344 82.095 100.119 82.7939L97.4845 91.0117H103.682Z" fill="white"/>
<path d="M133.858 76.3516L125.516 100.599H119.335L111.095 76.3516H116.971L122.02 93.2268C122.291 94.1398 122.454 94.9458 122.51 95.6447H122.611C122.69 94.8895 122.865 94.0609 123.135 93.1591L128.15 76.3516H133.858Z" fill="white"/>
<path d="M153.412 99.7367C151.645 100.593 149.337 101.022 146.489 101.022C142.774 101.022 139.852 99.9284 137.725 97.7415C135.597 95.5546 134.533 92.6406 134.533 88.9995C134.533 85.1217 135.727 81.9766 138.113 79.5643C140.511 77.1519 143.618 75.9458 147.434 75.9458C149.799 75.9458 151.791 76.2445 153.412 76.8419V82.1006C151.791 81.1312 149.945 80.6465 147.873 80.6465C145.599 80.6465 143.764 81.3623 142.369 82.7939C140.973 84.2255 140.275 86.1644 140.275 88.6106C140.275 90.9553 140.933 92.8266 142.25 94.2244C143.567 95.6109 145.341 96.3042 147.57 96.3042C149.697 96.3042 151.645 95.7856 153.412 94.7486V99.7367Z" fill="white"/>
<path d="M178.928 100.599H172.984L171.261 95.2051H162.649L160.944 100.599H155.033L163.848 76.3516H170.315L178.928 100.599ZM170.012 91.0117L167.411 82.8615C167.22 82.2528 167.085 81.5257 167.006 80.6803H166.871C166.814 81.3905 166.674 82.095 166.449 82.7939L163.814 91.0117H170.012Z" fill="white"/>
<path d="M202.265 100.599H196L192.234 94.3597C191.953 93.8862 191.682 93.4635 191.423 93.0915C191.165 92.7195 190.9 92.4038 190.63 92.1446C190.371 91.874 190.095 91.6711 189.802 91.5359C189.521 91.3893 189.211 91.316 188.874 91.316H187.405V100.599H181.95V76.3516H190.596C196.473 76.3516 199.411 78.5497 199.411 82.9461C199.411 83.7915 199.281 84.575 199.022 85.2964C198.763 86.0066 198.398 86.6492 197.925 87.2241C197.452 87.799 196.878 88.295 196.202 88.712C195.538 89.1291 194.795 89.456 193.973 89.6928V89.7604C194.334 89.8731 194.683 90.0591 195.02 90.3184C195.358 90.5664 195.684 90.8595 196 91.1977C196.315 91.5359 196.613 91.9022 196.895 92.2968C197.187 92.68 197.452 93.0577 197.688 93.4297L202.265 100.599ZM187.405 80.4435V87.1902H189.769C190.939 87.1902 191.879 86.8521 192.589 86.1757C193.309 85.4881 193.669 84.637 193.669 83.6224C193.669 81.5032 192.403 80.4435 189.87 80.4435H187.405Z" fill="white"/>
<path d="M231.107 80.7986H224.2V100.599H218.729V80.7986H211.856V76.3516H231.107V80.7986Z" fill="white"/>
<path d="M253.329 76.3516L245.443 91.9755V100.599H239.989V92.0769L232.305 76.3516H238.537L242.437 85.3979C242.505 85.567 242.691 86.2264 242.995 87.3762H243.062C243.208 86.5646 243.383 85.9277 243.586 85.4655L247.554 76.3516H253.329Z" fill="white"/>
<path d="M276.396 100.599H270.131L266.365 94.3597C266.084 93.8862 265.814 93.4635 265.555 93.0915C265.296 92.7195 265.031 92.4038 264.761 92.1446C264.502 91.874 264.226 91.6711 263.934 91.5359C263.652 91.3893 263.343 91.316 263.005 91.316H261.536V100.599H256.081V76.3516H264.727C270.604 76.3516 273.542 78.5497 273.542 82.9461C273.542 83.7915 273.413 84.575 273.154 85.2964C272.895 86.0066 272.529 86.6492 272.056 87.2241C271.583 87.799 271.009 88.295 270.334 88.712C269.669 89.1291 268.926 89.456 268.105 89.6928V89.7604C268.465 89.8731 268.814 90.0591 269.152 90.3184C269.489 90.5664 269.816 90.8595 270.131 91.1977C270.446 91.5359 270.744 91.9022 271.026 92.2968C271.319 92.68 271.583 93.0577 271.82 93.4297L276.396 100.599ZM261.536 80.4435V87.1902H263.9C265.071 87.1902 266.011 86.8521 266.72 86.1757C267.44 85.4881 267.801 84.637 267.801 83.6224C267.801 81.5032 266.534 80.4435 264.001 80.4435H261.536Z" fill="white"/>
<path d="M293.198 100.599H278.675V76.3516H292.641V80.7986H284.13V86.1926H292.049V90.6228H284.13V96.1689H293.198V100.599Z" fill="white"/>
<path d="M295.967 99.6691V94.2582C296.947 95.0811 298.01 95.7011 299.159 96.1182C300.307 96.524 301.466 96.7269 302.637 96.7269C303.324 96.7269 303.921 96.6649 304.427 96.5409C304.945 96.4169 305.373 96.2478 305.711 96.0336C306.06 95.8082 306.318 95.5489 306.487 95.2558C306.656 94.9515 306.741 94.6246 306.741 94.2751C306.741 93.8017 306.606 93.3789 306.335 93.0069C306.065 92.6349 305.694 92.2911 305.221 91.9755C304.759 91.6599 304.208 91.3555 303.566 91.0624C302.924 90.7693 302.232 90.4706 301.489 90.1662C299.598 89.3771 298.185 88.4133 297.25 87.2748C296.327 86.1362 295.866 84.761 295.866 83.149C295.866 81.8865 296.119 80.8043 296.626 79.9025C297.132 78.9894 297.819 78.2397 298.686 77.6536C299.564 77.0674 300.577 76.639 301.725 76.3685C302.874 76.0867 304.089 75.9458 305.373 75.9458C306.634 75.9458 307.748 76.0247 308.716 76.1825C309.696 76.329 310.596 76.5601 311.418 76.8758V81.9315C311.013 81.6497 310.568 81.4017 310.084 81.1875C309.611 80.9734 309.122 80.7986 308.615 80.6634C308.108 80.5168 307.602 80.4097 307.095 80.3421C306.6 80.2745 306.127 80.2406 305.677 80.2406C305.058 80.2406 304.495 80.3026 303.988 80.4266C303.482 80.5394 303.054 80.7028 302.705 80.917C302.356 81.1312 302.086 81.3905 301.894 81.6948C301.703 81.9879 301.607 82.3204 301.607 82.6924C301.607 83.0983 301.714 83.4646 301.928 83.7915C302.142 84.1072 302.446 84.4115 302.84 84.7046C303.234 84.9864 303.712 85.2683 304.275 85.5501C304.838 85.8206 305.474 86.1024 306.183 86.3955C307.152 86.8013 308.018 87.2353 308.784 87.6975C309.561 88.1484 310.225 88.6613 310.777 89.2362C311.328 89.8111 311.75 90.4706 312.043 91.2146C312.336 91.9473 312.482 92.804 312.482 93.7847C312.482 95.1375 312.223 96.276 311.705 97.2004C311.199 98.1135 310.506 98.8574 309.628 99.4324C308.75 99.996 307.726 100.402 306.555 100.65C305.395 100.898 304.168 101.022 302.874 101.022C301.545 101.022 300.279 100.909 299.074 100.684C297.881 100.458 296.845 100.12 295.967 99.6691Z" fill="white"/>
<path d="M65.1514 111.854H64.5982V107.125H65.1514V111.854Z" fill="white"/>
<path d="M69.1226 111.854H68.5826V109.928C68.5826 109.212 68.3213 108.853 67.7989 108.853C67.5289 108.853 67.3049 108.955 67.1271 109.16C66.9515 109.362 66.8637 109.618 66.8637 109.928V111.854H66.3237V108.477H66.8637V109.038H66.8769C67.1315 108.611 67.5003 108.398 67.9833 108.398C68.3521 108.398 68.6342 108.518 68.8295 108.758C69.0249 108.995 69.1226 109.339 69.1226 109.79V111.854Z" fill="white"/>
<path d="M73.0213 111.854H72.4813V111.28H72.4681C72.2179 111.715 71.8315 111.933 71.309 111.933C70.8854 111.933 70.5462 111.782 70.2916 111.481C70.0391 111.178 69.9129 110.766 69.9129 110.245C69.9129 109.686 70.0534 109.239 70.3344 108.903C70.6154 108.566 70.9896 108.398 71.4572 108.398C71.9204 108.398 72.2574 108.581 72.4681 108.946H72.4813V106.855H73.0213V111.854ZM72.4813 110.327V109.829C72.4813 109.557 72.3913 109.326 72.2113 109.137C72.0313 108.948 71.803 108.853 71.5264 108.853C71.1971 108.853 70.938 108.974 70.7493 109.216C70.5605 109.458 70.4661 109.792 70.4661 110.218C70.4661 110.607 70.5561 110.915 70.7361 111.141C70.9183 111.366 71.162 111.478 71.4671 111.478C71.7678 111.478 72.0115 111.369 72.1981 111.151C72.3869 110.934 72.4813 110.659 72.4813 110.327Z" fill="white"/>
<path d="M74.3911 107.62C74.2946 107.62 74.2122 107.587 74.1442 107.521C74.0761 107.455 74.0421 107.372 74.0421 107.271C74.0421 107.169 74.0761 107.086 74.1442 107.02C74.2122 106.952 74.2946 106.918 74.3911 106.918C74.4899 106.918 74.5734 106.952 74.6414 107.02C74.7117 107.086 74.7468 107.169 74.7468 107.271C74.7468 107.367 74.7117 107.45 74.6414 107.518C74.5734 107.586 74.4899 107.62 74.3911 107.62ZM74.6546 111.854H74.1145V108.477H74.6546V111.854Z" fill="white"/>
<path d="M78.1615 111.854H77.6214V111.326H77.6083C77.3734 111.731 77.0276 111.933 76.571 111.933C76.2351 111.933 75.9717 111.844 75.7807 111.666C75.5919 111.488 75.4975 111.251 75.4975 110.957C75.4975 110.326 75.8685 109.959 76.6105 109.856L77.6214 109.714C77.6214 109.14 77.3898 108.853 76.9266 108.853C76.5205 108.853 76.1539 108.992 75.8268 109.269V108.715C76.1583 108.504 76.5403 108.398 76.9727 108.398C77.7652 108.398 78.1615 108.818 78.1615 109.658V111.854ZM77.6214 110.146L76.8081 110.258C76.5578 110.293 76.3691 110.356 76.2417 110.446C76.1144 110.534 76.0507 110.691 76.0507 110.917C76.0507 111.082 76.1089 111.217 76.2253 111.323C76.3438 111.426 76.5008 111.478 76.6961 111.478C76.964 111.478 77.1846 111.384 77.358 111.198C77.5336 111.009 77.6214 110.77 77.6214 110.482V110.146Z" fill="white"/>
<path d="M79.8441 107.046L79.3831 108.517H78.9945L79.3601 107.046H79.8441Z" fill="white"/>
<path d="M80.5224 111.732V111.151C80.8166 111.369 81.1404 111.478 81.4938 111.478C81.968 111.478 82.2051 111.32 82.2051 111.003C82.2051 110.913 82.1842 110.837 82.1425 110.776C82.103 110.712 82.0481 110.656 81.9779 110.607C81.9098 110.559 81.8286 110.516 81.7342 110.479C81.642 110.439 81.5421 110.399 81.4345 110.357C81.2853 110.297 81.1536 110.238 81.0394 110.179C80.9274 110.117 80.8331 110.049 80.7562 109.974C80.6816 109.897 80.6245 109.811 80.585 109.714C80.5477 109.617 80.529 109.504 80.529 109.374C80.529 109.216 80.5652 109.076 80.6377 108.955C80.7101 108.832 80.8067 108.73 80.9274 108.649C81.0482 108.565 81.1854 108.503 81.3391 108.461C81.4949 108.419 81.6552 108.398 81.8198 108.398C82.1118 108.398 82.373 108.449 82.6035 108.55V109.097C82.3554 108.935 82.0701 108.853 81.7474 108.853C81.6464 108.853 81.5553 108.865 81.4741 108.889C81.3928 108.911 81.3226 108.943 81.2633 108.985C81.2062 109.027 81.1612 109.077 81.1283 109.137C81.0976 109.194 81.0822 109.258 81.0822 109.328C81.0822 109.416 81.0976 109.49 81.1283 109.549C81.1612 109.608 81.2084 109.661 81.2699 109.707C81.3314 109.753 81.406 109.795 81.4938 109.832C81.5816 109.87 81.6815 109.911 81.7935 109.954C81.9427 110.012 82.0767 110.071 82.1952 110.133C82.3137 110.192 82.4147 110.26 82.4981 110.337C82.5816 110.412 82.6452 110.499 82.6891 110.597C82.7352 110.696 82.7583 110.814 82.7583 110.95C82.7583 111.117 82.721 111.262 82.6463 111.385C82.5739 111.509 82.4762 111.611 82.3533 111.692C82.2303 111.773 82.0887 111.834 81.9285 111.873C81.7682 111.913 81.6003 111.933 81.4247 111.933C81.0778 111.933 80.7771 111.866 80.5224 111.732Z" fill="white"/>
<path d="M85.982 111.854H85.4419V106.855H85.982V111.854Z" fill="white"/>
<path d="M89.7852 110.301H87.4045C87.4133 110.677 87.5142 110.967 87.7074 111.171C87.9006 111.376 88.1662 111.478 88.5043 111.478C88.8841 111.478 89.2331 111.353 89.5514 111.102V111.61C89.2551 111.825 88.8632 111.933 88.3759 111.933C87.8995 111.933 87.5252 111.78 87.253 111.475C86.9808 111.167 86.8447 110.735 86.8447 110.179C86.8447 109.653 86.9929 109.226 87.2892 108.896C87.5878 108.564 87.9577 108.398 88.3989 108.398C88.8402 108.398 89.1815 108.541 89.423 108.827C89.6645 109.113 89.7852 109.509 89.7852 110.017V110.301ZM89.232 109.842C89.2298 109.53 89.1541 109.287 89.0048 109.114C88.8577 108.94 88.6525 108.853 88.389 108.853C88.1344 108.853 87.9182 108.944 87.7403 109.127C87.5625 109.309 87.4528 109.548 87.4111 109.842H89.232Z" fill="white"/>
<path d="M93.0188 111.854H92.4788V111.326H92.4656C92.2307 111.731 91.8849 111.933 91.4283 111.933C91.0925 111.933 90.829 111.844 90.6381 111.666C90.4493 111.488 90.3549 111.251 90.3549 110.957C90.3549 110.326 90.7259 109.959 91.4679 109.856L92.4788 109.714C92.4788 109.14 92.2472 108.853 91.784 108.853C91.3778 108.853 91.0112 108.992 90.6842 109.269V108.715C91.0156 108.504 91.3976 108.398 91.8301 108.398C92.6225 108.398 93.0188 108.818 93.0188 109.658V111.854ZM92.4788 110.146L91.6654 110.258C91.4152 110.293 91.2264 110.356 91.0991 110.446C90.9717 110.534 90.9081 110.691 90.9081 110.917C90.9081 111.082 90.9662 111.217 91.0826 111.323C91.2011 111.426 91.3581 111.478 91.5535 111.478C91.8213 111.478 92.0419 111.384 92.2153 111.198C92.3909 111.009 92.4788 110.77 92.4788 110.482V110.146Z" fill="white"/>
<path d="M96.9142 111.854H96.3742V111.28H96.361C96.1108 111.715 95.7244 111.933 95.2019 111.933C94.7783 111.933 94.4391 111.782 94.1845 111.481C93.932 111.178 93.8058 110.766 93.8058 110.245C93.8058 109.686 93.9463 109.239 94.2273 108.903C94.5082 108.566 94.8825 108.398 95.3501 108.398C95.8133 108.398 96.1503 108.581 96.361 108.946H96.3742V106.855H96.9142V111.854ZM96.3742 110.327V109.829C96.3742 109.557 96.2842 109.326 96.1042 109.137C95.9242 108.948 95.6959 108.853 95.4193 108.853C95.09 108.853 94.8309 108.974 94.6422 109.216C94.4534 109.458 94.359 109.792 94.359 110.218C94.359 110.607 94.449 110.915 94.629 111.141C94.8112 111.366 95.0549 111.478 95.36 111.478C95.6607 111.478 95.9044 111.369 96.091 111.151C96.2798 110.934 96.3742 110.659 96.3742 110.327Z" fill="white"/>
<path d="M98.284 107.62C98.1875 107.62 98.1051 107.587 98.0371 107.521C97.969 107.455 97.935 107.372 97.935 107.271C97.935 107.169 97.969 107.086 98.0371 107.02C98.1051 106.952 98.1875 106.918 98.284 106.918C98.3828 106.918 98.4662 106.952 98.5343 107.02C98.6045 107.086 98.6397 107.169 98.6397 107.271C98.6397 107.367 98.6045 107.45 98.5343 107.518C98.4662 107.586 98.3828 107.62 98.284 107.62ZM98.5475 111.854H98.0074V108.477H98.5475V111.854Z" fill="white"/>
<path d="M102.44 111.854H101.9V109.928C101.9 109.212 101.638 108.853 101.116 108.853C100.846 108.853 100.622 108.955 100.444 109.16C100.269 109.362 100.181 109.618 100.181 109.928V111.854H99.6407V108.477H100.181V109.038H100.194C100.449 108.611 100.817 108.398 101.3 108.398C101.669 108.398 101.951 108.518 102.147 108.758C102.342 108.995 102.44 109.339 102.44 109.79V111.854Z" fill="white"/>
<path d="M106.338 111.583C106.338 112.823 105.746 113.443 104.56 113.443C104.143 113.443 103.779 113.364 103.467 113.206V112.665C103.847 112.876 104.209 112.981 104.554 112.981C105.383 112.981 105.798 112.54 105.798 111.656V111.287H105.785C105.528 111.717 105.142 111.933 104.626 111.933C104.207 111.933 103.869 111.783 103.612 111.484C103.357 111.183 103.23 110.78 103.23 110.274C103.23 109.701 103.367 109.244 103.642 108.906C103.918 108.567 104.296 108.398 104.774 108.398C105.229 108.398 105.566 108.581 105.785 108.946H105.798V108.477H106.338V111.583ZM105.798 110.327V109.829C105.798 109.561 105.707 109.331 105.525 109.14C105.345 108.949 105.12 108.853 104.85 108.853C104.516 108.853 104.255 108.975 104.066 109.219C103.877 109.461 103.783 109.801 103.783 110.238C103.783 110.614 103.873 110.915 104.053 111.141C104.235 111.366 104.476 111.478 104.774 111.478C105.077 111.478 105.323 111.37 105.512 111.155C105.703 110.939 105.798 110.663 105.798 110.327Z" fill="white"/>
<path d="M111.581 111.699C111.322 111.855 111.014 111.933 110.659 111.933C110.178 111.933 109.789 111.777 109.493 111.465C109.199 111.15 109.052 110.744 109.052 110.245C109.052 109.689 109.211 109.242 109.529 108.906C109.847 108.567 110.272 108.398 110.803 108.398C111.1 108.398 111.361 108.453 111.587 108.563V109.117C111.337 108.941 111.069 108.853 110.784 108.853C110.439 108.853 110.156 108.977 109.934 109.226C109.715 109.472 109.605 109.796 109.605 110.198C109.605 110.594 109.708 110.906 109.914 111.135C110.123 111.364 110.402 111.478 110.751 111.478C111.045 111.478 111.322 111.38 111.581 111.184V111.699Z" fill="white"/>
<path d="M113.807 111.933C113.308 111.933 112.91 111.776 112.611 111.461C112.315 111.145 112.167 110.726 112.167 110.205C112.167 109.638 112.321 109.195 112.631 108.876C112.941 108.558 113.359 108.398 113.886 108.398C114.388 108.398 114.78 108.553 115.061 108.863C115.344 109.173 115.486 109.603 115.486 110.152C115.486 110.691 115.333 111.123 115.028 111.448C114.725 111.771 114.318 111.933 113.807 111.933ZM113.846 108.853C113.499 108.853 113.225 108.972 113.023 109.209C112.821 109.445 112.72 109.77 112.72 110.185C112.72 110.585 112.822 110.901 113.026 111.132C113.23 111.362 113.504 111.478 113.846 111.478C114.195 111.478 114.463 111.365 114.649 111.138C114.838 110.912 114.933 110.59 114.933 110.172C114.933 109.75 114.838 109.425 114.649 109.196C114.463 108.968 114.195 108.853 113.846 108.853Z" fill="white"/>
<path d="M121.136 111.854H120.596V109.915C120.596 109.541 120.538 109.271 120.422 109.104C120.308 108.937 120.115 108.853 119.842 108.853C119.612 108.853 119.415 108.959 119.253 109.17C119.093 109.381 119.013 109.634 119.013 109.928V111.854H118.472V109.849C118.472 109.185 118.217 108.853 117.705 108.853C117.468 108.853 117.273 108.953 117.119 109.153C116.965 109.351 116.889 109.609 116.889 109.928V111.854H116.349V108.477H116.889V109.011H116.902C117.141 108.603 117.49 108.398 117.949 108.398C118.179 108.398 118.38 108.463 118.552 108.593C118.723 108.72 118.84 108.888 118.904 109.097C119.154 108.631 119.527 108.398 120.023 108.398C120.765 108.398 121.136 108.857 121.136 109.773V111.854Z" fill="white"/>
<path d="M122.71 111.366H122.697V113.407H122.157V108.477H122.697V109.071H122.71C122.976 108.622 123.365 108.398 123.876 108.398C124.311 108.398 124.65 108.55 124.894 108.853C125.137 109.154 125.259 109.559 125.259 110.067C125.259 110.632 125.122 111.084 124.847 111.425C124.573 111.764 124.198 111.933 123.721 111.933C123.284 111.933 122.947 111.744 122.71 111.366ZM122.697 110.004V110.475C122.697 110.755 122.787 110.992 122.967 111.188C123.149 111.381 123.38 111.478 123.659 111.478C123.986 111.478 124.242 111.353 124.426 111.102C124.613 110.851 124.706 110.503 124.706 110.057C124.706 109.681 124.619 109.386 124.446 109.173C124.272 108.96 124.037 108.853 123.741 108.853C123.427 108.853 123.175 108.963 122.984 109.183C122.793 109.401 122.697 109.674 122.697 110.004Z" fill="white"/>
<path d="M128.535 111.854H127.995V111.326H127.982C127.747 111.731 127.402 111.933 126.945 111.933C126.609 111.933 126.346 111.844 126.155 111.666C125.966 111.488 125.872 111.251 125.872 110.957C125.872 110.326 126.243 109.959 126.984 109.856L127.995 109.714C127.995 109.14 127.764 108.853 127.301 108.853C126.894 108.853 126.528 108.992 126.201 109.269V108.715C126.532 108.504 126.914 108.398 127.347 108.398C128.139 108.398 128.535 108.818 128.535 109.658V111.854ZM127.995 110.146L127.182 110.258C126.932 110.293 126.743 110.356 126.616 110.446C126.488 110.534 126.425 110.691 126.425 110.917C126.425 111.082 126.483 111.217 126.599 111.323C126.718 111.426 126.875 111.478 127.07 111.478C127.338 111.478 127.559 111.384 127.732 111.198C127.908 111.009 127.995 110.77 127.995 110.482V110.146Z" fill="white"/>
<path d="M132.352 111.854H131.812V109.928C131.812 109.212 131.551 108.853 131.028 108.853C130.758 108.853 130.534 108.955 130.356 109.16C130.181 109.362 130.093 109.618 130.093 109.928V111.854H129.553V108.477H130.093V109.038H130.106C130.361 108.611 130.73 108.398 131.213 108.398C131.581 108.398 131.863 108.518 132.059 108.758C132.254 108.995 132.352 109.339 132.352 109.79V111.854Z" fill="white"/>
<path d="M136.056 108.477L134.505 112.394C134.229 113.093 133.84 113.443 133.34 113.443C133.199 113.443 133.082 113.429 132.987 113.4V112.915C133.104 112.955 133.21 112.975 133.307 112.975C133.579 112.975 133.783 112.812 133.919 112.487L134.189 111.847L132.872 108.477H133.471L134.384 111.076C134.394 111.109 134.418 111.194 134.453 111.333H134.472C134.483 111.28 134.505 111.196 134.538 111.082L135.497 108.477H136.056Z" fill="white"/>
<path d="M140.054 111.821C139.926 111.891 139.759 111.926 139.55 111.926C138.959 111.926 138.664 111.597 138.664 110.937V108.939H138.085V108.477H138.664V107.653L139.204 107.478V108.477H140.054V108.939H139.204V110.841C139.204 111.068 139.243 111.229 139.319 111.326C139.396 111.423 139.524 111.471 139.701 111.471C139.838 111.471 139.955 111.434 140.054 111.359V111.821Z" fill="white"/>
<path d="M142.184 111.933C141.686 111.933 141.288 111.776 140.989 111.461C140.693 111.145 140.544 110.726 140.544 110.205C140.544 109.638 140.699 109.195 141.009 108.876C141.318 108.558 141.736 108.398 142.263 108.398C142.766 108.398 143.158 108.553 143.439 108.863C143.722 109.173 143.864 109.603 143.864 110.152C143.864 110.691 143.711 111.123 143.406 111.448C143.103 111.771 142.696 111.933 142.184 111.933ZM142.224 108.853C141.877 108.853 141.603 108.972 141.401 109.209C141.199 109.445 141.098 109.77 141.098 110.185C141.098 110.585 141.2 110.901 141.404 111.132C141.608 111.362 141.881 111.478 142.224 111.478C142.573 111.478 142.841 111.365 143.027 111.138C143.216 110.912 143.31 110.59 143.31 110.172C143.31 109.75 143.216 109.425 143.027 109.196C142.841 108.968 142.573 108.853 142.224 108.853Z" fill="white"/>
<path d="M146.373 111.732V111.151C146.667 111.369 146.991 111.478 147.344 111.478C147.818 111.478 148.055 111.32 148.055 111.003C148.055 110.913 148.035 110.837 147.993 110.776C147.953 110.712 147.898 110.656 147.828 110.607C147.76 110.559 147.679 110.516 147.585 110.479C147.492 110.439 147.392 110.399 147.285 110.357C147.136 110.297 147.004 110.238 146.89 110.179C146.778 110.117 146.683 110.049 146.607 109.974C146.532 109.897 146.475 109.811 146.435 109.714C146.398 109.617 146.379 109.504 146.379 109.374C146.379 109.216 146.416 109.076 146.488 108.955C146.56 108.832 146.657 108.73 146.778 108.649C146.899 108.565 147.036 108.503 147.189 108.461C147.345 108.419 147.506 108.398 147.67 108.398C147.962 108.398 148.223 108.449 148.454 108.55V109.097C148.206 108.935 147.92 108.853 147.598 108.853C147.497 108.853 147.406 108.865 147.324 108.889C147.243 108.911 147.173 108.943 147.114 108.985C147.057 109.027 147.012 109.077 146.979 109.137C146.948 109.194 146.933 109.258 146.933 109.328C146.933 109.416 146.948 109.49 146.979 109.549C147.012 109.608 147.059 109.661 147.12 109.707C147.182 109.753 147.256 109.795 147.344 109.832C147.432 109.87 147.532 109.911 147.644 109.954C147.793 110.012 147.927 110.071 148.046 110.133C148.164 110.192 148.265 110.26 148.348 110.337C148.432 110.412 148.496 110.499 148.539 110.597C148.586 110.696 148.609 110.814 148.609 110.95C148.609 111.117 148.571 111.262 148.497 111.385C148.424 111.509 148.327 111.611 148.204 111.692C148.081 111.773 147.939 111.834 147.779 111.873C147.619 111.913 147.451 111.933 147.275 111.933C146.928 111.933 146.627 111.866 146.373 111.732Z" fill="white"/>
<path d="M151.855 111.854H151.315V111.326H151.302C151.067 111.731 150.722 111.933 150.265 111.933C149.929 111.933 149.666 111.844 149.475 111.666C149.286 111.488 149.191 111.251 149.191 110.957C149.191 110.326 149.562 109.959 150.304 109.856L151.315 109.714C151.315 109.14 151.084 108.853 150.621 108.853C150.214 108.853 149.848 108.992 149.521 109.269V108.715C149.852 108.504 150.234 108.398 150.667 108.398C151.459 108.398 151.855 108.818 151.855 109.658V111.854ZM151.315 110.146L150.502 110.258C150.252 110.293 150.063 110.356 149.936 110.446C149.808 110.534 149.745 110.691 149.745 110.917C149.745 111.082 149.803 111.217 149.919 111.323C150.038 111.426 150.195 111.478 150.39 111.478C150.658 111.478 150.878 111.384 151.052 111.198C151.228 111.009 151.315 110.77 151.315 110.482V110.146Z" fill="white"/>
<path d="M153.413 111.854H152.873V106.855H153.413V111.854Z" fill="white"/>
<path d="M157.216 110.301H154.835C154.844 110.677 154.945 110.967 155.138 111.171C155.332 111.376 155.597 111.478 155.935 111.478C156.315 111.478 156.664 111.353 156.982 111.102V111.61C156.686 111.825 156.294 111.933 155.807 111.933C155.33 111.933 154.956 111.78 154.684 111.475C154.412 111.167 154.276 110.735 154.276 110.179C154.276 109.653 154.424 109.226 154.72 108.896C155.019 108.564 155.389 108.398 155.83 108.398C156.271 108.398 156.612 108.541 156.854 108.827C157.095 109.113 157.216 109.509 157.216 110.017V110.301ZM156.663 109.842C156.661 109.53 156.585 109.287 156.436 109.114C156.289 108.94 156.083 108.853 155.82 108.853C155.565 108.853 155.349 108.944 155.171 109.127C154.993 109.309 154.884 109.548 154.842 109.842H156.663Z" fill="white"/>
<path d="M161.862 111.933C161.195 111.933 160.658 111.712 160.252 111.27C159.85 110.828 159.65 110.253 159.65 109.546C159.65 108.783 159.855 108.176 160.265 107.726C160.678 107.273 161.237 107.046 161.941 107.046C162.591 107.046 163.116 107.266 163.515 107.706C163.915 108.145 164.115 108.72 164.115 109.43C164.115 110.202 163.91 110.812 163.502 111.26C163.406 111.368 163.302 111.46 163.193 111.537L164.52 112.49H163.515L162.626 111.824C162.394 111.897 162.139 111.933 161.862 111.933ZM161.902 107.547C161.406 107.547 161.003 107.727 160.693 108.085C160.384 108.443 160.229 108.914 160.229 109.496C160.229 110.076 160.379 110.546 160.68 110.904C160.983 111.258 161.377 111.435 161.862 111.435C162.38 111.435 162.789 111.266 163.087 110.927C163.386 110.589 163.535 110.115 163.535 109.506C163.535 108.88 163.39 108.397 163.1 108.059C162.811 107.718 162.411 107.547 161.902 107.547Z" fill="white"/>
<path d="M167.697 111.854H167.157V111.32H167.144C166.92 111.728 166.573 111.933 166.104 111.933C165.3 111.933 164.898 111.454 164.898 110.495V108.477H165.435V110.41C165.435 111.122 165.707 111.478 166.252 111.478C166.515 111.478 166.731 111.381 166.9 111.188C167.072 110.992 167.157 110.737 167.157 110.423V108.477H167.697V111.854Z" fill="white"/>
<path d="M171.204 111.854H170.664V111.326H170.651C170.416 111.731 170.07 111.933 169.614 111.933C169.278 111.933 169.014 111.844 168.823 111.666C168.635 111.488 168.54 111.251 168.54 110.957C168.54 110.326 168.911 109.959 169.653 109.856L170.664 109.714C170.664 109.14 170.433 108.853 169.969 108.853C169.563 108.853 169.197 108.992 168.87 109.269V108.715C169.201 108.504 169.583 108.398 170.015 108.398C170.808 108.398 171.204 108.818 171.204 109.658V111.854ZM170.664 110.146L169.851 110.258C169.601 110.293 169.412 110.356 169.284 110.446C169.157 110.534 169.093 110.691 169.093 110.917C169.093 111.082 169.152 111.217 169.268 111.323C169.386 111.426 169.543 111.478 169.739 111.478C170.007 111.478 170.227 111.384 170.401 111.198C170.576 111.009 170.664 110.77 170.664 110.482V110.146Z" fill="white"/>
<path d="M172.762 111.854H172.222V106.855H172.762V111.854Z" fill="white"/>
<path d="M174.131 107.62C174.035 107.62 173.953 107.587 173.885 107.521C173.816 107.455 173.782 107.372 173.782 107.271C173.782 107.169 173.816 107.086 173.885 107.02C173.953 106.952 174.035 106.918 174.131 106.918C174.23 106.918 174.314 106.952 174.382 107.02C174.452 107.086 174.487 107.169 174.487 107.271C174.487 107.367 174.452 107.45 174.382 107.518C174.314 107.586 174.23 107.62 174.131 107.62ZM174.395 111.854H173.855V108.477H174.395V111.854Z" fill="white"/>
<path d="M177.052 111.821C176.925 111.891 176.757 111.926 176.548 111.926C175.958 111.926 175.663 111.597 175.663 110.937V108.939H175.083V108.477H175.663V107.653L176.203 107.478V108.477H177.052V108.939H176.203V110.841C176.203 111.068 176.241 111.229 176.318 111.326C176.395 111.423 176.522 111.471 176.7 111.471C176.836 111.471 176.953 111.434 177.052 111.359V111.821Z" fill="white"/>
<path d="M180.457 108.477L178.906 112.394C178.63 113.093 178.241 113.443 177.74 113.443C177.6 113.443 177.482 113.429 177.388 113.4V112.915C177.504 112.955 177.611 112.975 177.708 112.975C177.98 112.975 178.184 112.812 178.32 112.487L178.59 111.847L177.273 108.477H177.872L178.784 111.076C178.795 111.109 178.818 111.194 178.853 111.333H178.873C178.884 111.28 178.906 111.196 178.939 111.082L179.897 108.477H180.457Z" fill="white"/>
<path d="M186.417 109.941C186.417 111.269 185.819 111.933 184.622 111.933C183.477 111.933 182.904 111.294 182.904 110.017V107.125H183.457V109.981C183.457 110.95 183.865 111.435 184.682 111.435C185.47 111.435 185.864 110.967 185.864 110.03V107.125H186.417V109.941Z" fill="white"/>
<path d="M187.323 111.732V111.151C187.617 111.369 187.941 111.478 188.294 111.478C188.768 111.478 189.005 111.32 189.005 111.003C189.005 110.913 188.984 110.837 188.943 110.776C188.903 110.712 188.848 110.656 188.778 110.607C188.71 110.559 188.629 110.516 188.534 110.479C188.442 110.439 188.342 110.399 188.235 110.357C188.085 110.297 187.954 110.238 187.84 110.179C187.728 110.117 187.633 110.049 187.556 109.974C187.482 109.897 187.425 109.811 187.385 109.714C187.348 109.617 187.329 109.504 187.329 109.374C187.329 109.216 187.365 109.076 187.438 108.955C187.51 108.832 187.607 108.73 187.728 108.649C187.848 108.565 187.986 108.503 188.139 108.461C188.295 108.419 188.455 108.398 188.62 108.398C188.912 108.398 189.173 108.449 189.404 108.55V109.097C189.156 108.935 188.87 108.853 188.548 108.853C188.447 108.853 188.355 108.865 188.274 108.889C188.193 108.911 188.123 108.943 188.064 108.985C188.006 109.027 187.961 109.077 187.929 109.137C187.898 109.194 187.882 109.258 187.882 109.328C187.882 109.416 187.898 109.49 187.929 109.549C187.961 109.608 188.009 109.661 188.07 109.707C188.132 109.753 188.206 109.795 188.294 109.832C188.382 109.87 188.482 109.911 188.594 109.954C188.743 110.012 188.877 110.071 188.995 110.133C189.114 110.192 189.215 110.26 189.298 110.337C189.382 110.412 189.445 110.499 189.489 110.597C189.535 110.696 189.558 110.814 189.558 110.95C189.558 111.117 189.521 111.262 189.447 111.385C189.374 111.509 189.276 111.611 189.153 111.692C189.031 111.773 188.889 111.834 188.729 111.873C188.568 111.913 188.4 111.933 188.225 111.933C187.878 111.933 187.577 111.866 187.323 111.732Z" fill="white"/>
<path d="M193.102 110.301H190.721C190.73 110.677 190.831 110.967 191.024 111.171C191.217 111.376 191.483 111.478 191.821 111.478C192.2 111.478 192.549 111.353 192.868 111.102V111.61C192.571 111.825 192.18 111.933 191.692 111.933C191.216 111.933 190.842 111.78 190.569 111.475C190.297 111.167 190.161 110.735 190.161 110.179C190.161 109.653 190.309 109.226 190.606 108.896C190.904 108.564 191.274 108.398 191.715 108.398C192.157 108.398 192.498 108.541 192.739 108.827C192.981 109.113 193.102 109.509 193.102 110.017V110.301ZM192.548 109.842C192.546 109.53 192.47 109.287 192.321 109.114C192.174 108.94 191.969 108.853 191.705 108.853C191.451 108.853 191.235 108.944 191.057 109.127C190.879 109.309 190.769 109.548 190.727 109.842H192.548Z" fill="white"/>
<path d="M196.799 111.854H196.259V111.28H196.246C195.996 111.715 195.61 111.933 195.087 111.933C194.663 111.933 194.324 111.782 194.07 111.481C193.817 111.178 193.691 110.766 193.691 110.245C193.691 109.686 193.831 109.239 194.112 108.903C194.393 108.566 194.768 108.398 195.235 108.398C195.699 108.398 196.035 108.581 196.246 108.946H196.259V106.855H196.799V111.854ZM196.259 110.327V109.829C196.259 109.557 196.169 109.326 195.989 109.137C195.809 108.948 195.581 108.853 195.304 108.853C194.975 108.853 194.716 108.974 194.527 109.216C194.339 109.458 194.244 109.792 194.244 110.218C194.244 110.607 194.334 110.915 194.514 111.141C194.696 111.366 194.94 111.478 195.245 111.478C195.546 111.478 195.79 111.369 195.976 111.151C196.165 110.934 196.259 110.659 196.259 110.327Z" fill="white"/>
<path d="M202.608 107.627H201.245V111.854H200.692V107.627H199.332V107.125H202.608V107.627Z" fill="white"/>
<path d="M203.556 107.62C203.46 107.62 203.377 107.587 203.309 107.521C203.241 107.455 203.207 107.372 203.207 107.271C203.207 107.169 203.241 107.086 203.309 107.02C203.377 106.952 203.46 106.918 203.556 106.918C203.655 106.918 203.739 106.952 203.807 107.02C203.877 107.086 203.912 107.169 203.912 107.271C203.912 107.367 203.877 107.45 203.807 107.518C203.739 107.586 203.655 107.62 203.556 107.62ZM203.82 111.854H203.28V108.477H203.82V111.854Z" fill="white"/>
<path d="M206.671 109.025C206.577 108.952 206.441 108.916 206.263 108.916C206.033 108.916 205.839 109.025 205.684 109.242C205.53 109.46 205.453 109.757 205.453 110.133V111.854H204.913V108.477H205.453V109.173H205.466C205.543 108.936 205.66 108.751 205.819 108.619C205.977 108.485 206.153 108.418 206.349 108.418C206.489 108.418 206.597 108.433 206.671 108.464V109.025Z" fill="white"/>
<path d="M209.968 110.301H207.587C207.596 110.677 207.697 110.967 207.89 111.171C208.083 111.376 208.349 111.478 208.687 111.478C209.066 111.478 209.415 111.353 209.734 111.102V111.61C209.437 111.825 209.046 111.933 208.558 111.933C208.082 111.933 207.708 111.78 207.435 111.475C207.163 111.167 207.027 110.735 207.027 110.179C207.027 109.653 207.175 109.226 207.472 108.896C207.77 108.564 208.14 108.398 208.581 108.398C209.022 108.398 209.364 108.541 209.605 108.827C209.847 109.113 209.968 109.509 209.968 110.017V110.301ZM209.414 109.842C209.412 109.53 209.336 109.287 209.187 109.114C209.04 108.94 208.835 108.853 208.571 108.853C208.317 108.853 208.1 108.944 207.923 109.127C207.745 109.309 207.635 109.548 207.593 109.842H209.414Z" fill="white"/>
<path d="M210.583 111.732V111.151C210.877 111.369 211.201 111.478 211.555 111.478C212.029 111.478 212.266 111.32 212.266 111.003C212.266 110.913 212.245 110.837 212.203 110.776C212.164 110.712 212.109 110.656 212.039 110.607C211.971 110.559 211.889 110.516 211.795 110.479C211.703 110.439 211.603 110.399 211.495 110.357C211.346 110.297 211.214 110.238 211.1 110.179C210.988 110.117 210.894 110.049 210.817 109.974C210.742 109.897 210.685 109.811 210.646 109.714C210.609 109.617 210.59 109.504 210.59 109.374C210.59 109.216 210.626 109.076 210.699 108.955C210.771 108.832 210.868 108.73 210.988 108.649C211.109 108.565 211.246 108.503 211.4 108.461C211.556 108.419 211.716 108.398 211.881 108.398C212.173 108.398 212.434 108.449 212.664 108.55V109.097C212.416 108.935 212.131 108.853 211.808 108.853C211.707 108.853 211.616 108.865 211.535 108.889C211.454 108.911 211.383 108.943 211.324 108.985C211.267 109.027 211.222 109.077 211.189 109.137C211.158 109.194 211.143 109.258 211.143 109.328C211.143 109.416 211.158 109.49 211.189 109.549C211.222 109.608 211.269 109.661 211.331 109.707C211.392 109.753 211.467 109.795 211.555 109.832C211.642 109.87 211.742 109.911 211.854 109.954C212.004 110.012 212.138 110.071 212.256 110.133C212.375 110.192 212.476 110.26 212.559 110.337C212.642 110.412 212.706 110.499 212.75 110.597C212.796 110.696 212.819 110.814 212.819 110.95C212.819 111.117 212.782 111.262 212.707 111.385C212.635 111.509 212.537 111.611 212.414 111.692C212.291 111.773 212.15 111.834 211.989 111.873C211.829 111.913 211.661 111.933 211.486 111.933C211.139 111.933 210.838 111.866 210.583 111.732Z" fill="white"/>
<path d="M215.779 107.62C215.683 107.62 215.6 107.587 215.532 107.521C215.464 107.455 215.43 107.372 215.43 107.271C215.43 107.169 215.464 107.086 215.532 107.02C215.6 106.952 215.683 106.918 215.779 106.918C215.878 106.918 215.962 106.952 216.03 107.02C216.1 107.086 216.135 107.169 216.135 107.271C216.135 107.367 216.1 107.45 216.03 107.518C215.962 107.586 215.878 107.62 215.779 107.62ZM216.043 111.854H215.503V108.477H216.043V111.854Z" fill="white"/>
<path d="M219.935 111.854H219.395V109.928C219.395 109.212 219.134 108.853 218.611 108.853C218.341 108.853 218.117 108.955 217.94 109.16C217.764 109.362 217.676 109.618 217.676 109.928V111.854H217.136V108.477H217.676V109.038H217.689C217.944 108.611 218.313 108.398 218.796 108.398C219.164 108.398 219.447 108.518 219.642 108.758C219.837 108.995 219.935 109.339 219.935 109.79V111.854Z" fill="white"/>
<path d="M226.333 109.941C226.333 111.269 225.735 111.933 224.538 111.933C223.392 111.933 222.819 111.294 222.819 110.017V107.125H223.373V109.981C223.373 110.95 223.781 111.435 224.598 111.435C225.386 111.435 225.78 110.967 225.78 110.03V107.125H226.333V109.941Z" fill="white"/>
<path d="M230.242 111.854H229.702V109.928C229.702 109.212 229.44 108.853 228.918 108.853C228.648 108.853 228.424 108.955 228.246 109.16C228.07 109.362 227.983 109.618 227.983 109.928V111.854H227.443V108.477H227.983V109.038H227.996C228.25 108.611 228.619 108.398 229.102 108.398C229.471 108.398 229.753 108.518 229.949 108.758C230.144 108.995 230.242 109.339 230.242 109.79V111.854Z" fill="white"/>
<path d="M231.816 111.366H231.802V111.854H231.262V106.855H231.802V109.071H231.816C232.081 108.622 232.47 108.398 232.981 108.398C233.414 108.398 233.752 108.55 233.995 108.853C234.241 109.154 234.364 109.559 234.364 110.067C234.364 110.632 234.227 111.084 233.953 111.425C233.678 111.764 233.303 111.933 232.826 111.933C232.381 111.933 232.044 111.744 231.816 111.366ZM231.802 110.004V110.475C231.802 110.755 231.892 110.992 232.072 111.188C232.255 111.381 232.485 111.478 232.764 111.478C233.091 111.478 233.347 111.353 233.531 111.102C233.718 110.851 233.811 110.503 233.811 110.057C233.811 109.681 233.724 109.386 233.551 109.173C233.377 108.96 233.143 108.853 232.846 108.853C232.532 108.853 232.28 108.963 232.089 109.183C231.898 109.401 231.802 109.674 231.802 110.004Z" fill="white"/>
<path d="M237.937 110.301H235.556C235.565 110.677 235.666 110.967 235.859 111.171C236.052 111.376 236.318 111.478 236.656 111.478C237.036 111.478 237.385 111.353 237.703 111.102V111.61C237.407 111.825 237.015 111.933 236.528 111.933C236.051 111.933 235.677 111.78 235.405 111.475C235.133 111.167 234.996 110.735 234.996 110.179C234.996 109.653 235.145 109.226 235.441 108.896C235.74 108.564 236.109 108.398 236.551 108.398C236.992 108.398 237.333 108.541 237.575 108.827C237.816 109.113 237.937 109.509 237.937 110.017V110.301ZM237.384 109.842C237.382 109.53 237.306 109.287 237.157 109.114C237.009 108.94 236.804 108.853 236.541 108.853C236.286 108.853 236.07 108.944 235.892 109.127C235.714 109.309 235.605 109.548 235.563 109.842H237.384Z" fill="white"/>
<path d="M241.171 111.854H240.631V111.326H240.617C240.382 111.731 240.037 111.933 239.58 111.933C239.244 111.933 238.981 111.844 238.79 111.666C238.601 111.488 238.507 111.251 238.507 110.957C238.507 110.326 238.878 109.959 239.62 109.856L240.631 109.714C240.631 109.14 240.399 108.853 239.936 108.853C239.53 108.853 239.163 108.992 238.836 109.269V108.715C239.167 108.504 239.549 108.398 239.982 108.398C240.774 108.398 241.171 108.818 241.171 109.658V111.854ZM240.631 110.146L239.817 110.258C239.567 110.293 239.378 110.356 239.251 110.446C239.123 110.534 239.06 110.691 239.06 110.917C239.06 111.082 239.118 111.217 239.234 111.323C239.353 111.426 239.51 111.478 239.705 111.478C239.973 111.478 240.194 111.384 240.367 111.198C240.543 111.009 240.631 110.77 240.631 110.482V110.146Z" fill="white"/>
<path d="M243.752 111.821C243.625 111.891 243.457 111.926 243.248 111.926C242.658 111.926 242.363 111.597 242.363 110.937V108.939H241.783V108.477H242.363V107.653L242.903 107.478V108.477H243.752V108.939H242.903V110.841C242.903 111.068 242.941 111.229 243.018 111.326C243.095 111.423 243.222 111.471 243.4 111.471C243.536 111.471 243.653 111.434 243.752 111.359V111.821Z" fill="white"/>
<path d="M246.887 111.854H246.347V111.326H246.334C246.099 111.731 245.753 111.933 245.296 111.933C244.961 111.933 244.697 111.844 244.506 111.666C244.317 111.488 244.223 111.251 244.223 110.957C244.223 110.326 244.594 109.959 245.336 109.856L246.347 109.714C246.347 109.14 246.115 108.853 245.652 108.853C245.246 108.853 244.879 108.992 244.552 109.269V108.715C244.884 108.504 245.266 108.398 245.698 108.398C246.491 108.398 246.887 108.818 246.887 109.658V111.854ZM246.347 110.146L245.534 110.258C245.283 110.293 245.095 110.356 244.967 110.446C244.84 110.534 244.776 110.691 244.776 110.917C244.776 111.082 244.834 111.217 244.951 111.323C245.069 111.426 245.226 111.478 245.422 111.478C245.689 111.478 245.91 111.384 246.083 111.198C246.259 111.009 246.347 110.77 246.347 110.482V110.146Z" fill="white"/>
<path d="M248.458 111.366H248.444V111.854H247.904V106.855H248.444V109.071H248.458C248.723 108.622 249.112 108.398 249.623 108.398C250.056 108.398 250.394 108.55 250.637 108.853C250.883 109.154 251.006 109.559 251.006 110.067C251.006 110.632 250.869 111.084 250.595 111.425C250.32 111.764 249.945 111.933 249.469 111.933C249.023 111.933 248.686 111.744 248.458 111.366ZM248.444 110.004V110.475C248.444 110.755 248.534 110.992 248.714 111.188C248.897 111.381 249.127 111.478 249.406 111.478C249.733 111.478 249.989 111.353 250.173 111.102C250.36 110.851 250.453 110.503 250.453 110.057C250.453 109.681 250.366 109.386 250.193 109.173C250.02 108.96 249.785 108.853 249.488 108.853C249.174 108.853 248.922 108.963 248.731 109.183C248.54 109.401 248.444 109.674 248.444 110.004Z" fill="white"/>
<path d="M252.409 111.854H251.869V106.855H252.409V111.854Z" fill="white"/>
<path d="M256.212 110.301H253.832C253.84 110.677 253.941 110.967 254.134 111.171C254.328 111.376 254.593 111.478 254.931 111.478C255.311 111.478 255.66 111.353 255.978 111.102V111.61C255.682 111.825 255.29 111.933 254.803 111.933C254.327 111.933 253.952 111.78 253.68 111.475C253.408 111.167 253.272 110.735 253.272 110.179C253.272 109.653 253.42 109.226 253.716 108.896C254.015 108.564 254.385 108.398 254.826 108.398C255.267 108.398 255.609 108.541 255.85 108.827C256.092 109.113 256.212 109.509 256.212 110.017V110.301ZM255.659 109.842C255.657 109.53 255.581 109.287 255.432 109.114C255.285 108.94 255.08 108.853 254.816 108.853C254.561 108.853 254.345 108.944 254.167 109.127C253.99 109.309 253.88 109.548 253.838 109.842H255.659Z" fill="white"/>
<path d="M259.508 110.067V111.854H258.955V107.125H260.253C260.757 107.125 261.148 107.249 261.425 107.495C261.704 107.741 261.843 108.088 261.843 108.537C261.843 108.985 261.688 109.352 261.379 109.638C261.071 109.924 260.655 110.067 260.131 110.067H259.508ZM259.508 107.627V109.565H260.088C260.47 109.565 260.761 109.479 260.961 109.305C261.163 109.129 261.263 108.882 261.263 108.563C261.263 107.939 260.895 107.627 260.157 107.627H259.508Z" fill="white"/>
<path d="M264.421 109.025C264.327 108.952 264.191 108.916 264.013 108.916C263.783 108.916 263.589 109.025 263.433 109.242C263.28 109.46 263.203 109.757 263.203 110.133V111.854H262.663V108.477H263.203V109.173H263.216C263.293 108.936 263.41 108.751 263.568 108.619C263.727 108.485 263.903 108.418 264.099 108.418C264.239 108.418 264.347 108.433 264.421 108.464V109.025Z" fill="white"/>
<path d="M265.284 107.62C265.187 107.62 265.105 107.587 265.037 107.521C264.969 107.455 264.935 107.372 264.935 107.271C264.935 107.169 264.969 107.086 265.037 107.02C265.105 106.952 265.187 106.918 265.284 106.918C265.383 106.918 265.466 106.952 265.534 107.02C265.605 107.086 265.64 107.169 265.64 107.271C265.64 107.367 265.605 107.45 265.534 107.518C265.466 107.586 265.383 107.62 265.284 107.62ZM265.547 111.854H265.007V108.477H265.547V111.854Z" fill="white"/>
<path d="M268.939 111.699C268.68 111.855 268.373 111.933 268.017 111.933C267.536 111.933 267.148 111.777 266.851 111.465C266.557 111.15 266.41 110.744 266.41 110.245C266.41 109.689 266.569 109.242 266.888 108.906C267.206 108.567 267.631 108.398 268.162 108.398C268.458 108.398 268.72 108.453 268.946 108.563V109.117C268.695 108.941 268.428 108.853 268.142 108.853C267.798 108.853 267.514 108.977 267.293 109.226C267.073 109.472 266.963 109.796 266.963 110.198C266.963 110.594 267.067 110.906 267.273 111.135C267.481 111.364 267.76 111.478 268.109 111.478C268.403 111.478 268.68 111.38 268.939 111.184V111.699Z" fill="white"/>
<path d="M272.466 110.301H270.085C270.094 110.677 270.195 110.967 270.388 111.171C270.581 111.376 270.847 111.478 271.185 111.478C271.565 111.478 271.914 111.353 272.232 111.102V111.61C271.936 111.825 271.544 111.933 271.056 111.933C270.58 111.933 270.206 111.78 269.934 111.475C269.661 111.167 269.525 110.735 269.525 110.179C269.525 109.653 269.673 109.226 269.97 108.896C270.268 108.564 270.638 108.398 271.079 108.398C271.521 108.398 271.862 108.541 272.104 108.827C272.345 109.113 272.466 109.509 272.466 110.017V110.301ZM271.913 109.842C271.91 109.53 271.835 109.287 271.685 109.114C271.538 108.94 271.333 108.853 271.07 108.853C270.815 108.853 270.599 108.944 270.421 109.127C270.243 109.309 270.133 109.548 270.092 109.842H271.913Z" fill="white"/>
<path d="M273.082 111.732V111.151C273.376 111.369 273.699 111.478 274.053 111.478C274.527 111.478 274.764 111.32 274.764 111.003C274.764 110.913 274.743 110.837 274.702 110.776C274.662 110.712 274.607 110.656 274.537 110.607C274.469 110.559 274.388 110.516 274.293 110.479C274.201 110.439 274.101 110.399 273.994 110.357C273.844 110.297 273.713 110.238 273.598 110.179C273.487 110.117 273.392 110.049 273.315 109.974C273.241 109.897 273.184 109.811 273.144 109.714C273.107 109.617 273.088 109.504 273.088 109.374C273.088 109.216 273.124 109.076 273.197 108.955C273.269 108.832 273.366 108.73 273.487 108.649C273.607 108.565 273.744 108.503 273.898 108.461C274.054 108.419 274.214 108.398 274.379 108.398C274.671 108.398 274.932 108.449 275.163 108.55V109.097C274.915 108.935 274.629 108.853 274.306 108.853C274.205 108.853 274.114 108.865 274.033 108.889C273.952 108.911 273.882 108.943 273.822 108.985C273.765 109.027 273.72 109.077 273.687 109.137C273.657 109.194 273.641 109.258 273.641 109.328C273.641 109.416 273.657 109.49 273.687 109.549C273.72 109.608 273.768 109.661 273.829 109.707C273.89 109.753 273.965 109.795 274.053 109.832C274.141 109.87 274.241 109.911 274.353 109.954C274.502 110.012 274.636 110.071 274.754 110.133C274.873 110.192 274.974 110.26 275.057 110.337C275.141 110.412 275.204 110.499 275.248 110.597C275.294 110.696 275.317 110.814 275.317 110.95C275.317 111.117 275.28 111.262 275.205 111.385C275.133 111.509 275.035 111.611 274.912 111.692C274.789 111.773 274.648 111.834 274.488 111.873C274.327 111.913 274.159 111.933 273.984 111.933C273.637 111.933 273.336 111.866 273.082 111.732Z" fill="white"/>
<path d="M276.338 111.926C276.237 111.926 276.15 111.89 276.078 111.817C276.008 111.745 275.973 111.658 275.973 111.557C275.973 111.456 276.008 111.369 276.078 111.296C276.15 111.222 276.237 111.184 276.338 111.184C276.441 111.184 276.529 111.222 276.602 111.296C276.674 111.369 276.71 111.456 276.71 111.557C276.71 111.658 276.674 111.745 276.602 111.817C276.529 111.89 276.441 111.926 276.338 111.926Z" fill="white"/>
<path d="M29.096 118.716C20.0933 99.8078 16.8798 79.6868 20.022 62.08C23.2497 43.9265 32.8844 30.1989 47.1322 23.4001C53.1537 20.5437 59.7428 19.0891 66.4055 19.1453C65.1204 18.9334 63.8315 18.7845 62.5353 18.6841C54.3119 18.0296 46.564 19.4198 39.4549 22.7901C25.2071 29.5889 15.5762 43.3203 12.3447 61.47C9.20245 79.0768 12.4152 99.2014 21.4187 118.107C34.9942 146.682 59.4043 166.393 83.5729 168.32C84.8431 168.424 86.1208 168.48 87.38 168.468C64.5114 164.876 41.9511 145.774 29.096 118.717V118.716ZM136.98 125.117L308.311 118.065H109.279V118.158C107.136 126.054 102.656 132.277 96.0749 135.419C93.7694 136.511 91.2903 137.19 88.7505 137.424C95.4695 139.615 102.226 139.503 108.139 136.687C112.886 134.426 116.566 130.64 119.177 125.853L126.658 125.545C123.39 133.359 118.037 139.275 110.973 142.638C106.159 144.944 100.874 145.87 95.269 145.417C78.1872 144.055 60.8412 129.937 51.0806 109.411C37.6611 81.1893 42.9464 51.536 63.126 41.9367C67.9396 39.6307 73.2435 38.6674 78.8484 39.1213C90.4665 40.0547 102.211 46.9057 111.601 57.6429L101.996 57.2447C90.6004 46.7865 76.8985 42.6616 65.9525 47.8871C64.5346 48.5584 63.1933 49.3815 61.9522 50.3418C72.5602 48.4339 84.8291 54.1948 94.5112 65.1442H293.918L120.731 58.0145C119.29 55.8722 117.789 53.808 116.229 51.822H228.083L109.636 44.3389C97.8651 32.356 83.7994 24.7837 69.8338 23.6754C62.435 23.0916 55.4113 24.3374 49.0146 27.3981C22.2877 40.1181 15.2827 79.3929 33.0665 116.819C45.9772 144 68.9683 162.729 91.5993 164.544C99.0389 165.128 106.04 163.882 112.44 160.822C121.714 156.414 128.798 148.66 133.147 138.413L244.363 131.388H135.576C136.133 129.368 136.601 127.278 136.98 125.117L136.98 125.117Z" fill="white"/>
</g>
</svg>
