<svg width="15" height="15" viewBox="0 0 15 15" fill="none" xmlns="http://www.w3.org/2000/svg">
<g clip-path="url(#clip0_14_622)">
<path d="M2.8125 4.21875C2.8125 4.09443 2.86189 3.9752 2.94979 3.88729C3.0377 3.79939 3.15693 3.75 3.28125 3.75H8.90625C9.03057 3.75 9.1498 3.79939 9.23771 3.88729C9.32561 3.9752 9.375 4.09443 9.375 4.21875C9.375 4.34307 9.32561 4.4623 9.23771 4.55021C9.1498 4.63811 9.03057 4.6875 8.90625 4.6875H3.28125C3.15693 4.6875 3.0377 4.63811 2.94979 4.55021C2.86189 4.4623 2.8125 4.34307 2.8125 4.21875ZM2.8125 6.09375C2.8125 5.96943 2.86189 5.8502 2.94979 5.76229C3.0377 5.67439 3.15693 5.625 3.28125 5.625H8.90625C9.03057 5.625 9.1498 5.67439 9.23771 5.76229C9.32561 5.8502 9.375 5.96943 9.375 6.09375C9.375 6.21807 9.32561 6.3373 9.23771 6.42521C9.1498 6.51311 9.03057 6.5625 8.90625 6.5625H3.28125C3.15693 6.5625 3.0377 6.51311 2.94979 6.42521C2.86189 6.3373 2.8125 6.21807 2.8125 6.09375ZM2.8125 7.96875C2.8125 7.84443 2.86189 7.7252 2.94979 7.63729C3.0377 7.54939 3.15693 7.5 3.28125 7.5H8.90625C9.03057 7.5 9.1498 7.54939 9.23771 7.63729C9.32561 7.7252 9.375 7.84443 9.375 7.96875C9.375 8.09307 9.32561 8.2123 9.23771 8.30021C9.1498 8.38811 9.03057 8.4375 8.90625 8.4375H3.28125C3.15693 8.4375 3.0377 8.38811 2.94979 8.30021C2.86189 8.2123 2.8125 8.09307 2.8125 7.96875ZM2.8125 9.84375C2.8125 9.71943 2.86189 9.6002 2.94979 9.51229C3.0377 9.42439 3.15693 9.375 3.28125 9.375H8.90625C9.03057 9.375 9.1498 9.42439 9.23771 9.51229C9.32561 9.6002 9.375 9.71943 9.375 9.84375C9.375 9.96807 9.32561 10.0873 9.23771 10.1752C9.1498 10.2631 9.03057 10.3125 8.90625 10.3125H3.28125C3.15693 10.3125 3.0377 10.2631 2.94979 10.1752C2.86189 10.0873 2.8125 9.96807 2.8125 9.84375ZM2.8125 11.7188C2.8125 11.5944 2.86189 11.4752 2.94979 11.3873C3.0377 11.2994 3.15693 11.25 3.28125 11.25H8.90625C9.03057 11.25 9.1498 11.2994 9.23771 11.3873C9.32561 11.4752 9.375 11.5944 9.375 11.7188C9.375 11.8431 9.32561 11.9623 9.23771 12.0502C9.1498 12.1381 9.03057 12.1875 8.90625 12.1875H3.28125C3.15693 12.1875 3.0377 12.1381 2.94979 12.0502C2.86189 11.9623 2.8125 11.8431 2.8125 11.7188ZM10.7812 3.75C10.6569 3.75 10.5377 3.79939 10.4498 3.88729C10.3619 3.9752 10.3125 4.09443 10.3125 4.21875C10.3125 4.34307 10.3619 4.4623 10.4498 4.55021C10.5377 4.63811 10.6569 4.6875 10.7812 4.6875H11.7188C11.8431 4.6875 11.9623 4.63811 12.0502 4.55021C12.1381 4.4623 12.1875 4.34307 12.1875 4.21875C12.1875 4.09443 12.1381 3.9752 12.0502 3.88729C11.9623 3.79939 11.8431 3.75 11.7188 3.75H10.7812ZM10.7812 5.625C10.6569 5.625 10.5377 5.67439 10.4498 5.76229C10.3619 5.8502 10.3125 5.96943 10.3125 6.09375C10.3125 6.21807 10.3619 6.3373 10.4498 6.42521C10.5377 6.51311 10.6569 6.5625 10.7812 6.5625H11.7188C11.8431 6.5625 11.9623 6.51311 12.0502 6.42521C12.1381 6.3373 12.1875 6.21807 12.1875 6.09375C12.1875 5.96943 12.1381 5.8502 12.0502 5.76229C11.9623 5.67439 11.8431 5.625 11.7188 5.625H10.7812ZM10.7812 7.5C10.6569 7.5 10.5377 7.54939 10.4498 7.63729C10.3619 7.7252 10.3125 7.84443 10.3125 7.96875C10.3125 8.09307 10.3619 8.2123 10.4498 8.30021C10.5377 8.38811 10.6569 8.4375 10.7812 8.4375H11.7188C11.8431 8.4375 11.9623 8.38811 12.0502 8.30021C12.1381 8.2123 12.1875 8.09307 12.1875 7.96875C12.1875 7.84443 12.1381 7.7252 12.0502 7.63729C11.9623 7.54939 11.8431 7.5 11.7188 7.5H10.7812ZM10.7812 9.375C10.6569 9.375 10.5377 9.42439 10.4498 9.51229C10.3619 9.6002 10.3125 9.71943 10.3125 9.84375C10.3125 9.96807 10.3619 10.0873 10.4498 10.1752C10.5377 10.2631 10.6569 10.3125 10.7812 10.3125H11.7188C11.8431 10.3125 11.9623 10.2631 12.0502 10.1752C12.1381 10.0873 12.1875 9.96807 12.1875 9.84375C12.1875 9.71943 12.1381 9.6002 12.0502 9.51229C11.9623 9.42439 11.8431 9.375 11.7188 9.375H10.7812ZM10.7812 11.25C10.6569 11.25 10.5377 11.2994 10.4498 11.3873C10.3619 11.4752 10.3125 11.5944 10.3125 11.7188C10.3125 11.8431 10.3619 11.9623 10.4498 12.0502C10.5377 12.1381 10.6569 12.1875 10.7812 12.1875H11.7188C11.8431 12.1875 11.9623 12.1381 12.0502 12.0502C12.1381 11.9623 12.1875 11.8431 12.1875 11.7188C12.1875 11.5944 12.1381 11.4752 12.0502 11.3873C11.9623 11.2994 11.8431 11.25 11.7188 11.25H10.7812Z" fill="#7192A1"/>
<path d="M2.20688 0.605624C2.15435 0.553061 2.09009 0.513737 2.01938 0.490896C1.94867 0.468055 1.87354 0.462351 1.8002 0.474255C1.72685 0.486159 1.65738 0.51533 1.59753 0.559361C1.53767 0.603392 1.48914 0.661023 1.45594 0.727499L0.987188 1.665C0.954518 1.73018 0.937505 1.80209 0.9375 1.875V14.0625H0.46875C0.34443 14.0625 0.225201 14.1119 0.137294 14.1998C0.049386 14.2877 0 14.4069 0 14.5312C0 14.6556 0.049386 14.7748 0.137294 14.8627C0.225201 14.9506 0.34443 15 0.46875 15H14.5312C14.6556 15 14.7748 14.9506 14.8627 14.8627C14.9506 14.7748 15 14.6556 15 14.5312C15 14.4069 14.9506 14.2877 14.8627 14.1998C14.7748 14.1119 14.6556 14.0625 14.5312 14.0625H14.0625V1.875C14.0625 1.80209 14.0455 1.73018 14.0128 1.665L13.5441 0.727499C13.5108 0.661192 13.4623 0.60372 13.4025 0.559806C13.3428 0.515893 13.2734 0.486791 13.2002 0.474894C13.127 0.462997 13.052 0.468644 12.9814 0.49137C12.9108 0.514097 12.8466 0.553254 12.7941 0.605624L12.1875 1.21219L11.5819 0.605624C11.5383 0.561971 11.4866 0.527337 11.4297 0.503706C11.3727 0.480075 11.3117 0.467911 11.25 0.467911C11.1883 0.467911 11.1273 0.480075 11.0703 0.503706C11.0134 0.527337 10.9617 0.561971 10.9181 0.605624L10.3125 1.21219L9.70687 0.605624C9.66333 0.561971 9.6116 0.527337 9.55466 0.503706C9.49771 0.480075 9.43666 0.467911 9.375 0.467911C9.31334 0.467911 9.25229 0.480075 9.19534 0.503706C9.1384 0.527337 9.08667 0.561971 9.04313 0.605624L8.4375 1.21219L7.83187 0.605624C7.78833 0.561971 7.7366 0.527337 7.67966 0.503706C7.62271 0.480075 7.56166 0.467911 7.5 0.467911C7.43834 0.467911 7.37729 0.480075 7.32034 0.503706C7.26339 0.527337 7.21167 0.561971 7.16813 0.605624L6.5625 1.21219L5.95687 0.605624C5.91333 0.561971 5.86161 0.527337 5.80466 0.503706C5.74771 0.480075 5.68666 0.467911 5.625 0.467911C5.56334 0.467911 5.50229 0.480075 5.44534 0.503706C5.38839 0.527337 5.33667 0.561971 5.29313 0.605624L4.6875 1.21219L4.08187 0.605624C4.03833 0.561971 3.98661 0.527337 3.92966 0.503706C3.87271 0.480075 3.81166 0.467911 3.75 0.467911C3.68834 0.467911 3.62729 0.480075 3.57034 0.503706C3.51339 0.527337 3.46167 0.561971 3.41812 0.605624L2.8125 1.21219L2.20688 0.605624ZM2.00344 1.72875L2.48156 2.20687C2.56947 2.29475 2.68867 2.34412 2.81297 2.34412C2.93726 2.34412 3.05647 2.29475 3.14438 2.20687L3.75 1.60031L4.35563 2.20687C4.39917 2.25053 4.45089 2.28516 4.50784 2.30879C4.56479 2.33242 4.62584 2.34459 4.6875 2.34459C4.74916 2.34459 4.81021 2.33242 4.86716 2.30879C4.92411 2.28516 4.97583 2.25053 5.01937 2.20687L5.625 1.60031L6.23063 2.20687C6.27417 2.25053 6.32589 2.28516 6.38284 2.30879C6.43979 2.33242 6.50084 2.34459 6.5625 2.34459C6.62416 2.34459 6.68521 2.33242 6.74216 2.30879C6.79911 2.28516 6.85083 2.25053 6.89437 2.20687L7.5 1.60031L8.10563 2.20687C8.14917 2.25053 8.2009 2.28516 8.25784 2.30879C8.31479 2.33242 8.37584 2.34459 8.4375 2.34459C8.49916 2.34459 8.56021 2.33242 8.61716 2.30879C8.6741 2.28516 8.72583 2.25053 8.76937 2.20687L9.375 1.60031L9.98063 2.20687C10.0242 2.25053 10.0759 2.28516 10.1328 2.30879C10.1898 2.33242 10.2508 2.34459 10.3125 2.34459C10.3742 2.34459 10.4352 2.33242 10.4922 2.30879C10.5491 2.28516 10.6008 2.25053 10.6444 2.20687L11.25 1.60031L11.8556 2.20687C11.8992 2.25053 11.9509 2.28516 12.0078 2.30879C12.0648 2.33242 12.1258 2.34459 12.1875 2.34459C12.2492 2.34459 12.3102 2.33242 12.3672 2.30879C12.4241 2.28516 12.4758 2.25053 12.5194 2.20687L12.9966 1.72875L13.125 1.98562V14.0625H1.875V1.98562L2.00344 1.72875Z" fill="#7192A1"/>
</g>
<defs>
<clipPath id="clip0_14_622">
<rect width="15" height="15" fill="white"/>
</clipPath>
</defs>
</svg>
