<svg width="309" height="225" viewBox="0 0 309 225" fill="none" xmlns="http://www.w3.org/2000/svg">
<path opacity="0.66" d="M2.74513 128.063L1.96051 128.511C-0.929821 130.161 -0.585567 133.075 2.73712 135.012L153.811 223.284C157.134 225.221 162.17 225.462 165.06 223.812L165.845 223.364C168.735 221.715 168.391 218.8 165.068 216.863L14.0022 128.583C10.6795 126.646 5.64347 126.414 2.74513 128.063Z" fill="url(#paint0_linear_14_531)"/>
<path opacity="0.66" d="M62.9138 138.832L62.1291 139.28C59.2388 140.929 59.5831 143.844 62.9058 145.781L135.877 188.416C139.199 190.353 144.235 190.593 147.126 188.944L147.91 188.496C150.801 186.846 150.456 183.932 147.134 181.994L74.1629 139.36C70.8482 137.422 65.8041 137.182 62.9138 138.832Z" fill="url(#paint1_linear_14_531)"/>
<path opacity="0.66" d="M101.497 136.998L100.712 137.446C97.822 139.096 98.1663 142.01 101.489 143.948L196.037 199.192C199.36 201.13 204.396 201.37 207.286 199.721L208.071 199.272C210.961 197.623 210.617 194.709 207.294 192.771L112.746 137.527C109.431 135.589 104.395 135.349 101.497 136.998Z" fill="url(#paint2_linear_14_531)"/>
<path opacity="0.66" d="M22.0488 66.1969L21.2641 66.6452C18.3738 68.2946 18.7181 71.2089 22.0408 73.1465L217.15 187.151C220.473 189.088 225.509 189.328 228.399 187.679L229.184 187.231C232.074 185.581 231.73 182.667 228.407 180.729L33.3059 66.7253C29.9832 64.7877 24.9471 64.5475 22.0488 66.1969Z" fill="url(#paint3_linear_14_531)"/>
<path opacity="0.66" d="M99.8637 41.0886L99.079 41.537C96.1887 43.1863 96.533 46.1006 99.8557 48.0382L294.965 162.042C298.288 163.98 303.324 164.22 306.214 162.571L306.999 162.122C309.889 160.473 309.545 157.559 306.222 155.621L111.113 41.609C107.798 39.6715 102.754 39.4313 99.8637 41.0886Z" fill="url(#paint4_linear_14_531)"/>
<path opacity="0.66" d="M71.3846 1.09628L70.5999 1.54464C67.7096 3.19398 68.0539 6.10833 71.3765 8.0459L266.486 122.05C269.809 123.988 274.845 124.228 277.735 122.578L278.52 122.13C281.41 120.481 281.066 117.566 277.743 115.629L82.6336 1.62471C79.3109 -0.312852 74.2749 -0.553049 71.3846 1.09628Z" fill="url(#paint5_linear_14_531)"/>
<path opacity="0.66" d="M74.2509 72.3218L73.4663 72.7702C70.576 74.4195 70.9202 77.3339 74.2429 79.2714L238.263 175.109C241.586 177.046 246.622 177.287 249.513 175.637L250.297 175.189C253.187 173.54 252.843 170.625 249.521 168.688L85.5 72.8502C82.1853 70.9047 77.1493 70.6725 74.2509 72.3218Z" fill="url(#paint6_linear_14_531)"/>
<path opacity="0.66" d="M108.31 67.8462L107.526 68.2946C104.635 69.9439 104.98 72.8583 108.302 74.7958L169.768 110.713C173.091 112.65 178.127 112.891 181.017 111.241L181.802 110.793C184.692 109.144 184.348 106.229 181.025 104.292L119.559 68.3746C116.245 66.4291 111.209 66.1889 108.31 67.8462Z" fill="url(#paint7_linear_14_531)"/>
<path opacity="0.5" d="M139.792 200.409L34.6589 87.6622L94.5953 69.0312L159.816 145.965L184.116 200.818L139.792 200.409Z" fill="#242993"/>
<path d="M259.192 179.673L256.927 188.103L256.919 188.095C256.894 188.215 256.806 188.304 256.638 188.352L150.881 216.686C150.537 216.783 150.016 216.614 149.728 216.326L137.07 203.668C136.926 203.524 136.87 203.38 136.886 203.26V203.252C136.886 203.244 136.894 203.236 136.894 203.228L139.183 194.709L145.34 200.778L242.923 174.628C243.267 174.532 243.788 174.701 244.076 174.989L248.424 179.328L259.192 179.673Z" fill="url(#paint8_linear_14_531)"/>
<path d="M245.213 166.166L139.456 194.501C139.111 194.597 139.063 194.901 139.359 195.197L152.018 207.855C152.306 208.144 152.826 208.312 153.171 208.216L258.928 179.881C259.272 179.785 259.32 179.48 259.024 179.184L246.366 166.526C246.07 166.238 245.557 166.078 245.213 166.166Z" fill="url(#paint9_linear_14_531)"/>
<path opacity="0.6" d="M238.528 177.983L155.629 199.489C155.853 196.486 155.789 193.372 155.444 190.217L238.399 167.991C238.768 171.394 238.816 174.765 238.528 177.983Z" fill="#242993"/>
<path d="M247.103 171.882L147.382 198.6C147.15 198.664 147.118 198.88 147.318 199.072L150.496 202.251C150.697 202.451 151.049 202.563 151.281 202.499L251.002 175.781C251.234 175.717 251.266 175.509 251.066 175.309L247.887 172.13C247.687 171.93 247.335 171.818 247.103 171.882Z" fill="#242993"/>
<path d="M251.002 175.789L248.976 176.334L247.263 174.62C247.062 174.42 246.71 174.308 246.478 174.372L148.783 200.545L147.318 199.08C147.118 198.88 147.15 198.664 147.382 198.608L247.103 171.89C247.335 171.826 247.695 171.938 247.887 172.138L251.066 175.317C251.266 175.509 251.234 175.725 251.002 175.789Z" fill="#4553C7"/>
<path opacity="0.96" d="M51.5846 28.5024L134.548 6.27647C131.097 19.1669 135.941 37.2695 145.38 46.7091L229.328 130.665C240.425 141.762 246.126 163.035 242.058 178.191L159.095 200.417C163.155 185.261 157.454 163.988 146.365 152.891L62.4173 68.9351C52.9777 59.4955 48.1258 41.3928 51.5846 28.5024Z" fill="url(#paint10_linear_14_531)"/>
<path opacity="0.8" d="M242.059 178.183L159.095 200.409C159.272 199.745 159.424 199.064 159.568 198.376H159.576L242.531 176.15C242.395 176.838 242.243 177.519 242.059 178.183Z" fill="#4553C7"/>
<g opacity="0.32">
<path d="M146.005 119.56L127.214 124.588L128.543 125.917L147.334 120.881L146.005 119.56Z" fill="#4553C7"/>
<path d="M155.637 116.974L148.871 118.791L150.2 120.112L156.966 118.303L155.637 116.974Z" fill="#4553C7"/>
<path d="M163.107 114.972L158.511 116.205L159.84 117.534L164.436 116.301L163.107 114.972Z" fill="#4553C7"/>
<path d="M134.42 118.815L124.179 121.562L125.508 122.891L135.749 120.144L134.42 118.815Z" fill="#4553C7"/>
<path d="M149.84 114.684L137.294 118.047L138.615 119.376L151.161 116.013L149.84 114.684Z" fill="#4553C7"/>
<path d="M157.302 112.682L152.706 113.915L154.035 115.245L158.631 114.012L157.302 112.682Z" fill="#4553C7"/>
<path d="M164.412 110.777L159.816 112.01L161.145 113.339L165.741 112.106L164.412 110.777Z" fill="#4553C7"/>
<path d="M128.559 116.542L121.145 118.527L122.474 119.856L129.888 117.871L128.559 116.542Z" fill="#4553C7"/>
<path d="M133.963 115.092L131.425 115.773L132.754 117.102L135.284 116.421L133.963 115.092Z" fill="#4553C7"/>
<path d="M141.425 113.091L136.829 114.324L138.159 115.653L142.754 114.42L141.425 113.091Z" fill="#4553C7"/>
<path d="M145.46 108.167L118.118 115.493L119.447 116.822L146.79 109.496L145.46 108.167Z" fill="#4553C7"/>
<path d="M155.092 105.589L148.327 107.398L149.656 108.727L156.421 106.91L155.092 105.589Z" fill="#4553C7"/>
<path d="M122.49 110.481L115.084 112.466L116.413 113.787L123.819 111.802L122.49 110.481Z" fill="#4553C7"/>
<path d="M139.88 105.821L125.364 109.712L126.693 111.033L141.201 107.15L139.88 105.821Z" fill="#4553C7"/>
<path d="M147.342 103.819L142.746 105.052L144.075 106.373L148.671 105.148L147.342 103.819Z" fill="#4553C7"/>
<path d="M127.206 105.373L112.049 109.432L113.379 110.761L128.535 106.694L127.206 105.373Z" fill="#4553C7"/>
<path d="M141.041 101.666L130.08 104.596L131.409 105.925L142.37 102.987L141.041 101.666Z" fill="#4553C7"/>
<path d="M151.321 98.9113L143.915 100.897L145.236 102.218L152.65 100.232L151.321 98.9113Z" fill="#4553C7"/>
<path d="M114.139 105.028L109.023 106.397L110.344 107.726L115.468 106.357L114.139 105.028Z" fill="#4553C7"/>
<path d="M123.771 102.442L117.005 104.26L118.335 105.581L125.1 103.771L123.771 102.442Z" fill="#4553C7"/>
<path d="M137.55 98.7512L126.645 101.674L127.974 103.003L138.871 100.08L137.55 98.7512Z" fill="#4553C7"/>
<path d="M121.665 99.1675L105.989 103.363L107.318 104.692L122.994 100.489L121.665 99.1675Z" fill="#4553C7"/>
<path d="M139.231 94.4597L124.54 98.3909L125.869 99.72L140.561 95.7888L139.231 94.4597Z" fill="#4553C7"/>
<path d="M146.702 92.4581L142.106 93.6911L143.427 95.0122L148.031 93.7872L146.702 92.4581Z" fill="#4553C7"/>
<path d="M153.867 90.5365L149.272 91.7695L150.601 93.0986L155.196 91.8656L153.867 90.5365Z" fill="#4553C7"/>
<path d="M112.354 97.8144L102.954 100.336L104.283 101.658L113.675 99.1435L112.354 97.8144Z" fill="#4553C7"/>
<path d="M184.116 109.344L197.15 105.853L198.479 107.182L185.445 110.673L184.116 109.344Z" fill="#4553C7"/>
<path d="M183.875 105.565L194.116 102.818L195.445 104.148L185.205 106.894L183.875 105.565Z" fill="#4553C7"/>
<path d="M183.675 101.77L191.081 99.792L192.41 101.113L185.004 103.099L183.675 101.77Z" fill="#4553C7"/>
<path d="M177.278 99.6399L188.047 96.7576L189.376 98.0866L178.599 100.969L177.278 99.6399Z" fill="#4553C7"/>
<path d="M177.614 95.7087L185.02 93.7231L186.35 95.0522L178.936 97.0378L177.614 95.7087Z" fill="#4553C7"/>
<path d="M172.594 93.2107L181.986 90.6887L183.315 92.0177L173.915 94.5398L172.594 93.2107Z" fill="#4553C7"/>
<path d="M173.835 89.0313L178.952 87.6622L180.281 88.9833L175.165 90.3604L173.835 89.0313Z" fill="#4553C7"/>
<path d="M166.005 87.2859L175.925 84.6278L177.246 85.9569L167.326 88.615L166.005 87.2859Z" fill="#4553C7"/>
<path d="M163.491 84.1154L172.891 81.5933L174.22 82.9224L164.82 85.4364L163.491 84.1154Z" fill="#4553C7"/>
<path d="M119.215 95.9729L115.22 97.0458L116.549 98.3749L120.544 97.302L119.215 95.9729Z" fill="#4553C7"/>
<path d="M131.081 92.7944L122.09 95.2043L123.411 96.5334L132.41 94.1234L131.081 92.7944Z" fill="#4553C7"/>
<path d="M125.564 74.2354L110.392 78.3027L111.713 79.6317L126.893 75.5644L125.564 74.2354Z" fill="#4553C7"/>
<path d="M135.957 71.4491L129.984 73.0504L131.313 74.3795L137.286 72.7782L135.957 71.4491Z" fill="#4553C7"/>
</g>
<defs>
<linearGradient id="paint0_linear_14_531" x1="165.463" y1="223.582" x2="84.401" y2="81.482" gradientUnits="userSpaceOnUse">
<stop stop-color="#5778FF"/>
<stop offset="0.00965709" stop-color="#567CFF"/>
<stop offset="0.1262" stop-color="#4FABFF"/>
<stop offset="0.2375" stop-color="#49CFFF"/>
<stop offset="0.3408" stop-color="#45EAFF"/>
<stop offset="0.4332" stop-color="#43F9FF"/>
<stop offset="0.5054" stop-color="#42FFFF"/>
<stop offset="0.5719" stop-color="#43F7FF"/>
<stop offset="0.6727" stop-color="#46E3FF"/>
<stop offset="0.7952" stop-color="#4CC0FF"/>
<stop offset="0.9335" stop-color="#5391FF"/>
<stop offset="1" stop-color="#5778FF"/>
</linearGradient>
<linearGradient id="paint1_linear_14_531" x1="147.522" y1="188.721" x2="105.278" y2="114.668" gradientUnits="userSpaceOnUse">
<stop stop-color="#5778FF"/>
<stop offset="0.00965709" stop-color="#567CFF"/>
<stop offset="0.1262" stop-color="#4FABFF"/>
<stop offset="0.2375" stop-color="#49CFFF"/>
<stop offset="0.3408" stop-color="#45EAFF"/>
<stop offset="0.4332" stop-color="#43F9FF"/>
<stop offset="0.5054" stop-color="#42FFFF"/>
<stop offset="0.5719" stop-color="#43F7FF"/>
<stop offset="0.6727" stop-color="#46E3FF"/>
<stop offset="0.7952" stop-color="#4CC0FF"/>
<stop offset="0.9335" stop-color="#5391FF"/>
<stop offset="1" stop-color="#5778FF"/>
</linearGradient>
<linearGradient id="paint2_linear_14_531" x1="207.687" y1="199.495" x2="154.719" y2="106.642" gradientUnits="userSpaceOnUse">
<stop stop-color="#5778FF"/>
<stop offset="0.00965709" stop-color="#567CFF"/>
<stop offset="0.1262" stop-color="#4FABFF"/>
<stop offset="0.2375" stop-color="#49CFFF"/>
<stop offset="0.3408" stop-color="#45EAFF"/>
<stop offset="0.4332" stop-color="#43F9FF"/>
<stop offset="0.5054" stop-color="#42FFFF"/>
<stop offset="0.5719" stop-color="#43F7FF"/>
<stop offset="0.6727" stop-color="#46E3FF"/>
<stop offset="0.7952" stop-color="#4CC0FF"/>
<stop offset="0.9335" stop-color="#5391FF"/>
<stop offset="1" stop-color="#5778FF"/>
</linearGradient>
<linearGradient id="paint3_linear_14_531" x1="228.802" y1="187.45" x2="125.854" y2="6.98511" gradientUnits="userSpaceOnUse">
<stop stop-color="#5778FF"/>
<stop offset="0.00965709" stop-color="#567CFF"/>
<stop offset="0.1262" stop-color="#4FABFF"/>
<stop offset="0.2375" stop-color="#49CFFF"/>
<stop offset="0.3408" stop-color="#45EAFF"/>
<stop offset="0.4332" stop-color="#43F9FF"/>
<stop offset="0.5054" stop-color="#42FFFF"/>
<stop offset="0.5719" stop-color="#43F7FF"/>
<stop offset="0.6727" stop-color="#46E3FF"/>
<stop offset="0.7952" stop-color="#4CC0FF"/>
<stop offset="0.9335" stop-color="#5391FF"/>
<stop offset="1" stop-color="#5778FF"/>
</linearGradient>
<linearGradient id="paint4_linear_14_531" x1="306.613" y1="162.335" x2="203.666" y2="-18.1298" gradientUnits="userSpaceOnUse">
<stop stop-color="#5778FF"/>
<stop offset="0.00965709" stop-color="#567CFF"/>
<stop offset="0.1262" stop-color="#4FABFF"/>
<stop offset="0.2375" stop-color="#49CFFF"/>
<stop offset="0.3408" stop-color="#45EAFF"/>
<stop offset="0.4332" stop-color="#43F9FF"/>
<stop offset="0.5054" stop-color="#42FFFF"/>
<stop offset="0.5719" stop-color="#43F7FF"/>
<stop offset="0.6727" stop-color="#46E3FF"/>
<stop offset="0.7952" stop-color="#4CC0FF"/>
<stop offset="0.9335" stop-color="#5391FF"/>
<stop offset="1" stop-color="#5778FF"/>
</linearGradient>
<linearGradient id="paint5_linear_14_531" x1="278.131" y1="122.349" x2="175.184" y2="-58.1156" gradientUnits="userSpaceOnUse">
<stop stop-color="#5778FF"/>
<stop offset="0.00965709" stop-color="#567CFF"/>
<stop offset="0.1262" stop-color="#4FABFF"/>
<stop offset="0.2375" stop-color="#49CFFF"/>
<stop offset="0.3408" stop-color="#45EAFF"/>
<stop offset="0.4332" stop-color="#43F9FF"/>
<stop offset="0.5054" stop-color="#42FFFF"/>
<stop offset="0.5719" stop-color="#43F7FF"/>
<stop offset="0.6727" stop-color="#46E3FF"/>
<stop offset="0.7952" stop-color="#4CC0FF"/>
<stop offset="0.9335" stop-color="#5391FF"/>
<stop offset="1" stop-color="#5778FF"/>
</linearGradient>
<linearGradient id="paint6_linear_14_531" x1="249.914" y1="175.406" x2="162.417" y2="22.0271" gradientUnits="userSpaceOnUse">
<stop stop-color="#5778FF"/>
<stop offset="0.00965709" stop-color="#567CFF"/>
<stop offset="0.1262" stop-color="#4FABFF"/>
<stop offset="0.2375" stop-color="#49CFFF"/>
<stop offset="0.3408" stop-color="#45EAFF"/>
<stop offset="0.4332" stop-color="#43F9FF"/>
<stop offset="0.5054" stop-color="#42FFFF"/>
<stop offset="0.5719" stop-color="#43F7FF"/>
<stop offset="0.6727" stop-color="#46E3FF"/>
<stop offset="0.7952" stop-color="#4CC0FF"/>
<stop offset="0.9335" stop-color="#5391FF"/>
<stop offset="1" stop-color="#5778FF"/>
</linearGradient>
<linearGradient id="paint7_linear_14_531" x1="181.414" y1="111.005" x2="144.889" y2="46.9766" gradientUnits="userSpaceOnUse">
<stop stop-color="#5778FF"/>
<stop offset="0.00965709" stop-color="#567CFF"/>
<stop offset="0.1262" stop-color="#4FABFF"/>
<stop offset="0.2375" stop-color="#49CFFF"/>
<stop offset="0.3408" stop-color="#45EAFF"/>
<stop offset="0.4332" stop-color="#43F9FF"/>
<stop offset="0.5054" stop-color="#42FFFF"/>
<stop offset="0.5719" stop-color="#43F7FF"/>
<stop offset="0.6727" stop-color="#46E3FF"/>
<stop offset="0.7952" stop-color="#4CC0FF"/>
<stop offset="0.9335" stop-color="#5391FF"/>
<stop offset="1" stop-color="#5778FF"/>
</linearGradient>
<linearGradient id="paint8_linear_14_531" x1="139.079" y1="179.139" x2="238.424" y2="207.539" gradientUnits="userSpaceOnUse">
<stop stop-color="#5778FF"/>
<stop offset="0.0398" stop-color="#5C7DFF"/>
<stop offset="0.0867" stop-color="#6A8AFF"/>
<stop offset="0.1372" stop-color="#82A0FF"/>
<stop offset="0.1899" stop-color="#A3BEFF"/>
<stop offset="0.2237" stop-color="#BCD5FF"/>
</linearGradient>
<linearGradient id="paint9_linear_14_531" x1="182.43" y1="135.335" x2="204.975" y2="205.101" gradientUnits="userSpaceOnUse">
<stop stop-color="#C0D6FF"/>
<stop offset="0.2978" stop-color="#C5DBFF"/>
<stop offset="0.6488" stop-color="#D3E9FF"/>
<stop offset="1" stop-color="#E9FFFF"/>
</linearGradient>
<linearGradient id="paint10_linear_14_531" x1="119.549" y1="3.70002" x2="176.659" y2="208.781" gradientUnits="userSpaceOnUse">
<stop stop-color="#C0D6FF"/>
<stop offset="0.1196" stop-color="#D0E6FF"/>
<stop offset="0.2627" stop-color="#E9FFFF"/>
<stop offset="0.5143" stop-color="#C0D6FF"/>
<stop offset="0.6239" stop-color="#D0E6FF"/>
<stop offset="0.755" stop-color="#E9FFFF"/>
<stop offset="1" stop-color="#C0D6FF"/>
</linearGradient>
</defs>
</svg>
