<svg width="28" height="45" viewBox="0 0 28 45" fill="none" xmlns="http://www.w3.org/2000/svg">
<mask id="mask0_2_69" style="mask-type:alpha" maskUnits="userSpaceOnUse" x="0" y="0" width="28" height="28">
<rect width="28" height="28" fill="white"/>
</mask>
<g mask="url(#mask0_2_69)">
</g>
<path d="M11.75 23.75V18.4925C11.75 18.125 12.125 17.75 12.5 17.75H15.5C15.875 17.75 16.25 18.125 16.25 18.5V23.75C16.25 23.9489 16.329 24.1397 16.4697 24.2803C16.6103 24.421 16.8011 24.5 17 24.5H23C23.1989 24.5 23.3897 24.421 23.5303 24.2803C23.671 24.1397 23.75 23.9489 23.75 23.75V13.25C23.7502 13.1514 23.7309 13.0538 23.6933 12.9627C23.6558 12.8716 23.6006 12.7888 23.531 12.719L21.5 10.6895V5.75C21.5 5.55109 21.421 5.36032 21.2803 5.21967C21.1397 5.07902 20.9489 5 20.75 5H19.25C19.0511 5 18.8603 5.07902 18.7197 5.21967C18.579 5.36032 18.5 5.55109 18.5 5.75V7.6895L14.531 3.719C14.4613 3.64915 14.3786 3.59374 14.2875 3.55593C14.1963 3.51812 14.0987 3.49866 14 3.49866C13.9014 3.49866 13.8037 3.51812 13.7126 3.55593C13.6214 3.59374 13.5387 3.64915 13.469 3.719L4.469 12.719C4.3994 12.7888 4.34423 12.8716 4.30665 12.9627C4.26908 13.0538 4.24983 13.1514 4.25 13.25V23.75C4.25 23.9489 4.32902 24.1397 4.46967 24.2803C4.61032 24.421 4.80109 24.5 5 24.5H11C11.1989 24.5 11.3897 24.421 11.5303 24.2803C11.671 24.1397 11.75 23.9489 11.75 23.75Z" fill="white"/>
<path d="M0.880682 43V35.7273H1.76136V38.9659H5.6392V35.7273H6.51989V43H5.6392V39.7472H1.76136V43H0.880682ZM10.3853 43.1136C9.89287 43.1136 9.46082 42.9964 9.08913 42.7621C8.71982 42.5277 8.43099 42.1998 8.22266 41.7784C8.01669 41.357 7.91371 40.8646 7.91371 40.3011C7.91371 39.733 8.01669 39.237 8.22266 38.8132C8.43099 38.3894 8.71982 38.0604 9.08913 37.826C9.46082 37.5916 9.89287 37.4744 10.3853 37.4744C10.8777 37.4744 11.3086 37.5916 11.6779 37.826C12.0496 38.0604 12.3384 38.3894 12.5444 38.8132C12.7527 39.237 12.8569 39.733 12.8569 40.3011C12.8569 40.8646 12.7527 41.357 12.5444 41.7784C12.3384 42.1998 12.0496 42.5277 11.6779 42.7621C11.3086 42.9964 10.8777 43.1136 10.3853 43.1136ZM10.3853 42.3608C10.7594 42.3608 11.0671 42.2649 11.3086 42.0732C11.5501 41.8814 11.7288 41.6293 11.8448 41.3168C11.9608 41.0043 12.0188 40.6657 12.0188 40.3011C12.0188 39.9366 11.9608 39.5968 11.8448 39.282C11.7288 38.9671 11.5501 38.7126 11.3086 38.5185C11.0671 38.3243 10.7594 38.2273 10.3853 38.2273C10.0112 38.2273 9.70348 38.3243 9.462 38.5185C9.22053 38.7126 9.04179 38.9671 8.92578 39.282C8.80978 39.5968 8.75178 39.9366 8.75178 40.3011C8.75178 40.6657 8.80978 41.0043 8.92578 41.3168C9.04179 41.6293 9.22053 41.8814 9.462 42.0732C9.70348 42.2649 10.0112 42.3608 10.3853 42.3608ZM14.1362 43V37.5455H14.9458V38.3977H15.0169C15.1305 38.1065 15.314 37.8804 15.5673 37.7195C15.8206 37.5561 16.1248 37.4744 16.4799 37.4744C16.8398 37.4744 17.1393 37.5561 17.3784 37.7195C17.6199 37.8804 17.8081 38.1065 17.943 38.3977H17.9998C18.1395 38.116 18.349 37.8923 18.6284 37.7266C18.9077 37.5585 19.2427 37.4744 19.6333 37.4744C20.121 37.4744 20.5199 37.6271 20.8301 37.9325C21.1402 38.2356 21.2953 38.7079 21.2953 39.3494V43H20.4572V39.3494C20.4572 38.947 20.3471 38.6593 20.127 38.4865C19.9068 38.3137 19.6475 38.2273 19.3493 38.2273C18.9657 38.2273 18.6686 38.3433 18.4579 38.5753C18.2472 38.8049 18.1419 39.0961 18.1419 39.4489V43H17.2896V39.2642C17.2896 38.9541 17.189 38.7043 16.9877 38.5149C16.7865 38.3232 16.5273 38.2273 16.21 38.2273C15.9922 38.2273 15.7886 38.2853 15.5993 38.4013C15.4122 38.5173 15.2607 38.6783 15.1447 38.8842C15.0311 39.0878 14.9743 39.3234 14.9743 39.5909V43H14.1362ZM25.1145 43.1136C24.589 43.1136 24.1356 42.9976 23.7544 42.7656C23.3757 42.5312 23.0833 42.2045 22.8773 41.7855C22.6737 41.3641 22.5719 40.8741 22.5719 40.3153C22.5719 39.7566 22.6737 39.2642 22.8773 38.8381C23.0833 38.4096 23.3697 38.0758 23.7367 37.8366C24.106 37.5952 24.5369 37.4744 25.0293 37.4744C25.3134 37.4744 25.5939 37.5218 25.8709 37.6165C26.1479 37.7112 26.4 37.8651 26.6273 38.0781C26.8546 38.2888 27.0357 38.5682 27.1706 38.9162C27.3056 39.2642 27.373 39.6927 27.373 40.2017V40.5568H23.1685V39.8324H26.5208C26.5208 39.5246 26.4592 39.25 26.3361 39.0085C26.2154 38.767 26.0426 38.5765 25.8176 38.4368C25.5951 38.2971 25.3323 38.2273 25.0293 38.2273C24.6955 38.2273 24.4067 38.3101 24.1628 38.4759C23.9213 38.6392 23.7355 38.8523 23.6053 39.1151C23.4751 39.3778 23.41 39.6596 23.41 39.9602V40.4432C23.41 40.8551 23.481 41.2043 23.623 41.4908C23.7675 41.7749 23.9675 41.9915 24.2232 42.1406C24.4789 42.2874 24.776 42.3608 25.1145 42.3608C25.3347 42.3608 25.5336 42.33 25.7111 42.2685C25.891 42.2045 26.0461 42.1098 26.1763 41.9844C26.3065 41.8565 26.4071 41.6979 26.4782 41.5085L27.2878 41.7358C27.2026 42.0104 27.0594 42.2519 26.8581 42.4602C26.6569 42.6662 26.4083 42.8272 26.1124 42.9432C25.8165 43.0568 25.4838 43.1136 25.1145 43.1136Z" fill="white"/>
</svg>
