<svg width="34" height="45" viewBox="0 0 34 45" fill="none" xmlns="http://www.w3.org/2000/svg">
<mask id="mask0_2_82" style="mask-type:alpha" maskUnits="userSpaceOnUse" x="3" y="0" width="28" height="28">
<rect x="3" width="28" height="28" fill="#F25C54"/>
</mask>
<g mask="url(#mask0_2_82)">
</g>
<path d="M7.88 2.759C7.99739 2.73988 8.11764 2.74895 8.23083 2.78546C8.34403 2.82197 8.44691 2.88488 8.531 2.969L9.5 3.9395L10.469 2.969C10.5387 2.89915 10.6214 2.84374 10.7125 2.80593C10.8037 2.76812 10.9013 2.74866 11 2.74866C11.0987 2.74866 11.1963 2.76812 11.2875 2.80593C11.3786 2.84374 11.4613 2.89915 11.531 2.969L12.5 3.9395L13.469 2.969C13.5387 2.89915 13.6214 2.84374 13.7125 2.80593C13.8037 2.76812 13.9013 2.74866 14 2.74866C14.0987 2.74866 14.1963 2.76812 14.2875 2.80593C14.3786 2.84374 14.4613 2.89915 14.531 2.969L15.5 3.9395L16.469 2.969C16.5387 2.89915 16.6214 2.84374 16.7125 2.80593C16.8037 2.76812 16.9013 2.74866 17 2.74866C17.0987 2.74866 17.1963 2.76812 17.2874 2.80593C17.3786 2.84374 17.4613 2.89915 17.531 2.969L18.5 3.9395L19.469 2.969C19.5387 2.89915 19.6214 2.84374 19.7126 2.80593C19.8037 2.76812 19.9013 2.74866 20 2.74866C20.0987 2.74866 20.1963 2.76812 20.2874 2.80593C20.3786 2.84374 20.4613 2.89915 20.531 2.969L21.5 3.9395L22.469 2.969C22.5387 2.89915 22.6214 2.84374 22.7126 2.80593C22.8037 2.76812 22.9013 2.74866 23 2.74866C23.0987 2.74866 23.1963 2.76812 23.2874 2.80593C23.3786 2.84374 23.4613 2.89915 23.531 2.969L24.5 3.9395L25.469 2.969C25.553 2.8849 25.6559 2.82198 25.769 2.78543C25.8821 2.74889 26.0023 2.73976 26.1197 2.75881C26.237 2.77785 26.3482 2.82453 26.444 2.89498C26.5397 2.96543 26.6174 3.05764 26.6705 3.164L27.4205 4.664C27.4728 4.76829 27.5 4.88334 27.5 5V23C27.5 23.1167 27.4728 23.2317 27.4205 23.336L26.6705 24.836C26.6173 24.9421 26.5397 25.034 26.4441 25.1043C26.3484 25.1746 26.2375 25.2211 26.1203 25.2402C26.0032 25.2592 25.8832 25.2502 25.7702 25.2138C25.6573 25.1774 25.5545 25.1148 25.4705 25.031L24.5 24.0605L23.531 25.031C23.4613 25.1008 23.3786 25.1563 23.2874 25.1941C23.1963 25.2319 23.0987 25.2513 23 25.2513C22.9013 25.2513 22.8037 25.2319 22.7126 25.1941C22.6214 25.1563 22.5387 25.1008 22.469 25.031L21.5 24.0605L20.531 25.031C20.4613 25.1008 20.3786 25.1563 20.2874 25.1941C20.1963 25.2319 20.0987 25.2513 20 25.2513C19.9013 25.2513 19.8037 25.2319 19.7126 25.1941C19.6214 25.1563 19.5387 25.1008 19.469 25.031L18.5 24.0605L17.531 25.031C17.4613 25.1008 17.3786 25.1563 17.2874 25.1941C17.1963 25.2319 17.0987 25.2513 17 25.2513C16.9013 25.2513 16.8037 25.2319 16.7125 25.1941C16.6214 25.1563 16.5387 25.1008 16.469 25.031L15.5 24.0605L14.531 25.031C14.4613 25.1008 14.3786 25.1563 14.2875 25.1941C14.1963 25.2319 14.0987 25.2513 14 25.2513C13.9013 25.2513 13.8037 25.2319 13.7125 25.1941C13.6214 25.1563 13.5387 25.1008 13.469 25.031L12.5 24.0605L11.531 25.031C11.4613 25.1008 11.3786 25.1563 11.2875 25.1941C11.1963 25.2319 11.0987 25.2513 11 25.2513C10.9013 25.2513 10.8037 25.2319 10.7125 25.1941C10.6214 25.1563 10.5387 25.1008 10.469 25.031L9.5 24.0605L8.531 25.031C8.44696 25.1151 8.34414 25.178 8.231 25.2146C8.11787 25.2511 7.99767 25.2602 7.88031 25.2412C7.76296 25.2221 7.65181 25.1755 7.55604 25.105C7.46027 25.0346 7.38262 24.9424 7.3295 24.836L6.5795 23.336C6.52723 23.2317 6.50001 23.1167 6.5 23V5C6.50001 4.88334 6.52723 4.76829 6.5795 4.664L7.3295 3.164C7.38262 3.05771 7.46023 2.96556 7.55594 2.89515C7.65165 2.82474 7.76272 2.77807 7.88 2.759ZM8.2055 4.766L8 5.177V22.823L8.2055 23.234L8.9705 22.469C9.11115 22.3284 9.30188 22.2494 9.50075 22.2494C9.69962 22.2494 9.89035 22.3284 10.031 22.469L11 23.4395L11.969 22.4705C12.0387 22.4007 12.1214 22.3452 12.2125 22.3074C12.3037 22.2696 12.4013 22.2502 12.5 22.2502C12.5987 22.2502 12.6963 22.2696 12.7875 22.3074C12.8786 22.3452 12.9613 22.4007 13.031 22.4705L14 23.4395L14.969 22.4705C15.0387 22.4007 15.1214 22.3452 15.2125 22.3074C15.3037 22.2696 15.4013 22.2502 15.5 22.2502C15.5987 22.2502 15.6963 22.2696 15.7875 22.3074C15.8786 22.3452 15.9613 22.4007 16.031 22.4705L17 23.4395L17.969 22.4705C18.0387 22.4007 18.1214 22.3452 18.2126 22.3074C18.3037 22.2696 18.4013 22.2502 18.5 22.2502C18.5987 22.2502 18.6963 22.2696 18.7874 22.3074C18.8786 22.3452 18.9613 22.4007 19.031 22.4705L20 23.4395L20.969 22.4705C21.0387 22.4007 21.1214 22.3452 21.2126 22.3074C21.3037 22.2696 21.4013 22.2502 21.5 22.2502C21.5987 22.2502 21.6963 22.2696 21.7874 22.3074C21.8786 22.3452 21.9613 22.4007 22.031 22.4705L23 23.4395L23.969 22.4705C24.0387 22.4007 24.1214 22.3452 24.2126 22.3074C24.3037 22.2696 24.4013 22.2502 24.5 22.2502C24.5987 22.2502 24.6963 22.2696 24.7874 22.3074C24.8786 22.3452 24.9613 22.4007 25.031 22.4705L25.7945 23.234L26 22.823V5.177L25.7945 4.766L25.0295 5.531C24.8889 5.6716 24.6981 5.75059 24.4993 5.75059C24.3004 5.75059 24.1096 5.6716 23.969 5.531L23 4.5605L22.031 5.531C21.9613 5.60084 21.8786 5.65626 21.7874 5.69407C21.6963 5.73188 21.5987 5.75134 21.5 5.75134C21.4013 5.75134 21.3037 5.73188 21.2126 5.69407C21.1214 5.65626 21.0387 5.60084 20.969 5.531L20 4.5605L19.031 5.531C18.9613 5.60084 18.8786 5.65626 18.7874 5.69407C18.6963 5.73188 18.5987 5.75134 18.5 5.75134C18.4013 5.75134 18.3037 5.73188 18.2126 5.69407C18.1214 5.65626 18.0387 5.60084 17.969 5.531L17 4.5605L16.031 5.531C15.9613 5.60084 15.8786 5.65626 15.7875 5.69407C15.6963 5.73188 15.5987 5.75134 15.5 5.75134C15.4013 5.75134 15.3037 5.73188 15.2125 5.69407C15.1214 5.65626 15.0387 5.60084 14.969 5.531L14 4.5605L13.031 5.531C12.9613 5.60084 12.8786 5.65626 12.7875 5.69407C12.6963 5.73188 12.5987 5.75134 12.5 5.75134C12.4013 5.75134 12.3037 5.73188 12.2125 5.69407C12.1214 5.65626 12.0387 5.60084 11.969 5.531L11 4.5605L10.031 5.531C9.96133 5.60084 9.87857 5.65626 9.78745 5.69407C9.69633 5.73188 9.59865 5.75134 9.5 5.75134C9.40135 5.75134 9.30367 5.73188 9.21255 5.69407C9.12143 5.65626 9.03867 5.60084 8.969 5.531L8.2055 4.766Z" fill="white"/>
<path d="M9.5 8.75C9.5 8.55109 9.57902 8.36032 9.71967 8.21967C9.86032 8.07902 10.0511 8 10.25 8H19.25C19.4489 8 19.6397 8.07902 19.7803 8.21967C19.921 8.36032 20 8.55109 20 8.75C20 8.94891 19.921 9.13968 19.7803 9.28033C19.6397 9.42098 19.4489 9.5 19.25 9.5H10.25C10.0511 9.5 9.86032 9.42098 9.71967 9.28033C9.57902 9.13968 9.5 8.94891 9.5 8.75ZM9.5 11.75C9.5 11.5511 9.57902 11.3603 9.71967 11.2197C9.86032 11.079 10.0511 11 10.25 11H19.25C19.4489 11 19.6397 11.079 19.7803 11.2197C19.921 11.3603 20 11.5511 20 11.75C20 11.9489 19.921 12.1397 19.7803 12.2803C19.6397 12.421 19.4489 12.5 19.25 12.5H10.25C10.0511 12.5 9.86032 12.421 9.71967 12.2803C9.57902 12.1397 9.5 11.9489 9.5 11.75ZM9.5 14.75C9.5 14.5511 9.57902 14.3603 9.71967 14.2197C9.86032 14.079 10.0511 14 10.25 14H19.25C19.4489 14 19.6397 14.079 19.7803 14.2197C19.921 14.3603 20 14.5511 20 14.75C20 14.9489 19.921 15.1397 19.7803 15.2803C19.6397 15.421 19.4489 15.5 19.25 15.5H10.25C10.0511 15.5 9.86032 15.421 9.71967 15.2803C9.57902 15.1397 9.5 14.9489 9.5 14.75ZM9.5 17.75C9.5 17.5511 9.57902 17.3603 9.71967 17.2197C9.86032 17.079 10.0511 17 10.25 17H19.25C19.4489 17 19.6397 17.079 19.7803 17.2197C19.921 17.3603 20 17.5511 20 17.75C20 17.9489 19.921 18.1397 19.7803 18.2803C19.6397 18.421 19.4489 18.5 19.25 18.5H10.25C10.0511 18.5 9.86032 18.421 9.71967 18.2803C9.57902 18.1397 9.5 17.9489 9.5 17.75ZM21.5 8.75C21.5 8.55109 21.579 8.36032 21.7197 8.21967C21.8603 8.07902 22.0511 8 22.25 8H23.75C23.9489 8 24.1397 8.07902 24.2803 8.21967C24.421 8.36032 24.5 8.55109 24.5 8.75C24.5 8.94891 24.421 9.13968 24.2803 9.28033C24.1397 9.42098 23.9489 9.5 23.75 9.5H22.25C22.0511 9.5 21.8603 9.42098 21.7197 9.28033C21.579 9.13968 21.5 8.94891 21.5 8.75ZM21.5 11.75C21.5 11.5511 21.579 11.3603 21.7197 11.2197C21.8603 11.079 22.0511 11 22.25 11H23.75C23.9489 11 24.1397 11.079 24.2803 11.2197C24.421 11.3603 24.5 11.5511 24.5 11.75C24.5 11.9489 24.421 12.1397 24.2803 12.2803C24.1397 12.421 23.9489 12.5 23.75 12.5H22.25C22.0511 12.5 21.8603 12.421 21.7197 12.2803C21.579 12.1397 21.5 11.9489 21.5 11.75ZM21.5 14.75C21.5 14.5511 21.579 14.3603 21.7197 14.2197C21.8603 14.079 22.0511 14 22.25 14H23.75C23.9489 14 24.1397 14.079 24.2803 14.2197C24.421 14.3603 24.5 14.5511 24.5 14.75C24.5 14.9489 24.421 15.1397 24.2803 15.2803C24.1397 15.421 23.9489 15.5 23.75 15.5H22.25C22.0511 15.5 21.8603 15.421 21.7197 15.2803C21.579 15.1397 21.5 14.9489 21.5 14.75ZM21.5 17.75C21.5 17.5511 21.579 17.3603 21.7197 17.2197C21.8603 17.079 22.0511 17 22.25 17H23.75C23.9489 17 24.1397 17.079 24.2803 17.2197C24.421 17.3603 24.5 17.5511 24.5 17.75C24.5 17.9489 24.421 18.1397 24.2803 18.2803C24.1397 18.421 23.9489 18.5 23.75 18.5H22.25C22.0511 18.5 21.8603 18.421 21.7197 18.2803C21.579 18.1397 21.5 17.9489 21.5 17.75Z" fill="white"/>
<path d="M1.76136 35.7273V43H0.880682V35.7273H1.76136ZM4.2516 39.7188V43H3.41353V37.5455H4.22319V38.3977H4.29421C4.42205 38.1207 4.61618 37.8982 4.8766 37.7301C5.13701 37.5597 5.47319 37.4744 5.88512 37.4744C6.25444 37.4744 6.57759 37.5502 6.85458 37.7017C7.13157 37.8509 7.34701 38.0781 7.50089 38.3835C7.65477 38.6866 7.73171 39.0701 7.73171 39.5341V43H6.89364V39.5909C6.89364 39.1624 6.78237 38.8286 6.55984 38.5895C6.3373 38.348 6.0319 38.2273 5.64364 38.2273C5.37612 38.2273 5.13701 38.2853 4.92631 38.4013C4.71798 38.5173 4.55344 38.6866 4.43271 38.9091C4.31197 39.1316 4.2516 39.4015 4.2516 39.7188ZM13.5281 37.5455L11.511 43H10.6587L8.64169 37.5455H9.55078L11.0565 41.892H11.1133L12.619 37.5455H13.5281ZM16.6548 43.1136C16.1624 43.1136 15.7304 42.9964 15.3587 42.7621C14.9893 42.5277 14.7005 42.1998 14.4922 41.7784C14.2862 41.357 14.1832 40.8646 14.1832 40.3011C14.1832 39.733 14.2862 39.237 14.4922 38.8132C14.7005 38.3894 14.9893 38.0604 15.3587 37.826C15.7304 37.5916 16.1624 37.4744 16.6548 37.4744C17.1473 37.4744 17.5781 37.5916 17.9474 37.826C18.3191 38.0604 18.608 38.3894 18.8139 38.8132C19.0223 39.237 19.1264 39.733 19.1264 40.3011C19.1264 40.8646 19.0223 41.357 18.8139 41.7784C18.608 42.1998 18.3191 42.5277 17.9474 42.7621C17.5781 42.9964 17.1473 43.1136 16.6548 43.1136ZM16.6548 42.3608C17.0289 42.3608 17.3366 42.2649 17.5781 42.0732C17.8196 41.8814 17.9983 41.6293 18.1143 41.3168C18.2304 41.0043 18.2884 40.6657 18.2884 40.3011C18.2884 39.9366 18.2304 39.5968 18.1143 39.282C17.9983 38.9671 17.8196 38.7126 17.5781 38.5185C17.3366 38.3243 17.0289 38.2273 16.6548 38.2273C16.2808 38.2273 15.973 38.3243 15.7315 38.5185C15.4901 38.7126 15.3113 38.9671 15.1953 39.282C15.0793 39.5968 15.0213 39.9366 15.0213 40.3011C15.0213 40.6657 15.0793 41.0043 15.1953 41.3168C15.3113 41.6293 15.4901 41.8814 15.7315 42.0732C15.973 42.2649 16.2808 42.3608 16.6548 42.3608ZM20.4057 43V37.5455H21.2438V43H20.4057ZM20.8319 36.6364C20.6685 36.6364 20.5276 36.5807 20.4093 36.4695C20.2933 36.3582 20.2353 36.2244 20.2353 36.0682C20.2353 35.9119 20.2933 35.7782 20.4093 35.6669C20.5276 35.5556 20.6685 35.5 20.8319 35.5C20.9952 35.5 21.1349 35.5556 21.2509 35.6669C21.3693 35.7782 21.4284 35.9119 21.4284 36.0682C21.4284 36.2244 21.3693 36.3582 21.2509 36.4695C21.1349 36.5807 20.9952 36.6364 20.8319 36.6364ZM24.9947 43.1136C24.4833 43.1136 24.043 42.9929 23.6737 42.7514C23.3043 42.5099 23.0202 42.1773 22.8214 41.7536C22.6225 41.3298 22.5231 40.8456 22.5231 40.3011C22.5231 39.7472 22.6249 39.2583 22.8285 38.8345C23.0344 38.4084 23.3209 38.0758 23.6879 37.8366C24.0572 37.5952 24.488 37.4744 24.9805 37.4744C25.364 37.4744 25.7096 37.5455 26.0174 37.6875C26.3252 37.8295 26.5773 38.0284 26.7738 38.2841C26.9703 38.5398 27.0922 38.8381 27.1396 39.179H26.3015C26.2376 38.9304 26.0955 38.7102 25.8754 38.5185C25.6576 38.3243 25.364 38.2273 24.9947 38.2273C24.668 38.2273 24.3815 38.3125 24.1353 38.483C23.8915 38.651 23.7009 38.889 23.5636 39.1967C23.4286 39.5021 23.3612 39.8608 23.3612 40.2727C23.3612 40.6941 23.4274 41.0611 23.56 41.3736C23.695 41.6861 23.8844 41.9287 24.1282 42.1016C24.3744 42.2744 24.6632 42.3608 24.9947 42.3608C25.2125 42.3608 25.4102 42.3229 25.5877 42.2472C25.7653 42.1714 25.9156 42.0625 26.0387 41.9205C26.1618 41.7784 26.2494 41.608 26.3015 41.4091H27.1396C27.0922 41.7311 26.975 42.0211 26.788 42.2791C26.6033 42.5348 26.3583 42.7384 26.0529 42.8899C25.7499 43.0391 25.3971 43.1136 24.9947 43.1136ZM30.6516 43.1136C30.1261 43.1136 29.6727 42.9976 29.2915 42.7656C28.9128 42.5312 28.6204 42.2045 28.4144 41.7855C28.2108 41.3641 28.109 40.8741 28.109 40.3153C28.109 39.7566 28.2108 39.2642 28.4144 38.8381C28.6204 38.4096 28.9068 38.0758 29.2738 37.8366C29.6431 37.5952 30.074 37.4744 30.5664 37.4744C30.8505 37.4744 31.131 37.5218 31.408 37.6165C31.685 37.7112 31.9371 37.8651 32.1644 38.0781C32.3917 38.2888 32.5728 38.5682 32.7077 38.9162C32.8427 39.2642 32.9102 39.6927 32.9102 40.2017V40.5568H28.7056V39.8324H32.0579C32.0579 39.5246 31.9963 39.25 31.8732 39.0085C31.7525 38.767 31.5797 38.5765 31.3548 38.4368C31.1322 38.2971 30.8694 38.2273 30.5664 38.2273C30.2326 38.2273 29.9438 38.3101 29.6999 38.4759C29.4585 38.6392 29.2726 38.8523 29.1424 39.1151C29.0122 39.3778 28.9471 39.6596 28.9471 39.9602V40.4432C28.9471 40.8551 29.0181 41.2043 29.1602 41.4908C29.3046 41.7749 29.5046 41.9915 29.7603 42.1406C30.016 42.2874 30.3131 42.3608 30.6516 42.3608C30.8718 42.3608 31.0707 42.33 31.2482 42.2685C31.4281 42.2045 31.5832 42.1098 31.7134 41.9844C31.8436 41.8565 31.9442 41.6979 32.0153 41.5085L32.8249 41.7358C32.7397 42.0104 32.5965 42.2519 32.3952 42.4602C32.194 42.6662 31.9454 42.8272 31.6495 42.9432C31.3536 43.0568 31.021 43.1136 30.6516 43.1136Z" fill="white"/>
</svg>
