<svg width="34" height="46" viewBox="0 0 34 46" fill="none" xmlns="http://www.w3.org/2000/svg">
<mask id="mask0_2_91" style="mask-type:alpha" maskUnits="userSpaceOnUse" x="3" y="0" width="28" height="28">
<rect x="3" y="3.05176e-05" width="28" height="28" fill="#F25C54"/>
</mask>
<g mask="url(#mask0_2_91)">
</g>
<g clip-path="url(#clip0_2_91)">
<path fill-rule="evenodd" clip-rule="evenodd" d="M20 20.75C20 20.9489 19.921 21.1397 19.7803 21.2803C19.6397 21.421 19.4489 21.5 19.25 21.5H7.25C7.05109 21.5 6.86032 21.421 6.71967 21.2803C6.57902 21.1397 6.5 20.9489 6.5 20.75V7.25C6.5 7.05109 6.57902 6.86032 6.71967 6.71967C6.86032 6.57902 7.05109 6.5 7.25 6.5H19.25C19.4489 6.5 19.6397 6.57902 19.7803 6.71967C19.921 6.86032 20 7.05109 20 7.25V10.25C20 10.4489 20.079 10.6397 20.2197 10.7803C20.3603 10.921 20.5511 11 20.75 11C20.9489 11 21.1397 10.921 21.2803 10.7803C21.421 10.6397 21.5 10.4489 21.5 10.25V7.25C21.5 6.65326 21.2629 6.08097 20.841 5.65901C20.419 5.23705 19.8467 5 19.25 5H7.25C6.65326 5 6.08097 5.23705 5.65901 5.65901C5.23705 6.08097 5 6.65326 5 7.25V20.75C5 21.3467 5.23705 21.919 5.65901 22.341C6.08097 22.7629 6.65326 23 7.25 23H19.25C19.8467 23 20.419 22.7629 20.841 22.341C21.2629 21.919 21.5 21.3467 21.5 20.75V17.75C21.5 17.5511 21.421 17.3603 21.2803 17.2197C21.1397 17.079 20.9489 17 20.75 17C20.5511 17 20.3603 17.079 20.2197 17.2197C20.079 17.3603 20 17.5511 20 17.75V20.75Z" fill="white"/>
<path fill-rule="evenodd" clip-rule="evenodd" d="M28.781 14.531C28.8508 14.4613 28.9063 14.3786 28.9441 14.2875C28.9819 14.1963 29.0013 14.0987 29.0013 14C29.0013 13.9014 28.9819 13.8037 28.9441 13.7126C28.9063 13.6214 28.8508 13.5387 28.781 13.469L24.281 8.969C24.1402 8.82817 23.9492 8.74905 23.75 8.74905C23.5508 8.74905 23.3598 8.82817 23.219 8.969C23.0782 9.10983 22.9991 9.30084 22.9991 9.5C22.9991 9.69917 23.0782 9.89017 23.219 10.031L26.4395 13.25H13.25C13.0511 13.25 12.8603 13.329 12.7197 13.4697C12.579 13.6103 12.5 13.8011 12.5 14C12.5 14.1989 12.579 14.3897 12.7197 14.5303C12.8603 14.671 13.0511 14.75 13.25 14.75H26.4395L23.219 17.969C23.0782 18.1098 22.9991 18.3008 22.9991 18.5C22.9991 18.6992 23.0782 18.8902 23.219 19.031C23.3598 19.1718 23.5508 19.2509 23.75 19.2509C23.9492 19.2509 24.1402 19.1718 24.281 19.031L28.781 14.531Z" fill="white"/>
</g>
<path d="M0.880682 43V35.7273H1.76136V42.2188H5.14205V43H0.880682ZM8.60795 43.1136C8.11553 43.1136 7.68348 42.9964 7.31179 42.7621C6.94247 42.5277 6.65365 42.1998 6.44531 41.7784C6.23935 41.357 6.13636 40.8646 6.13636 40.3011C6.13636 39.733 6.23935 39.237 6.44531 38.8132C6.65365 38.3894 6.94247 38.0604 7.31179 37.826C7.68348 37.5916 8.11553 37.4744 8.60795 37.4744C9.10038 37.4744 9.53125 37.5916 9.90057 37.826C10.2723 38.0604 10.5611 38.3894 10.767 38.8132C10.9754 39.237 11.0795 39.733 11.0795 40.3011C11.0795 40.8646 10.9754 41.357 10.767 41.7784C10.5611 42.1998 10.2723 42.5277 9.90057 42.7621C9.53125 42.9964 9.10038 43.1136 8.60795 43.1136ZM8.60795 42.3608C8.98201 42.3608 9.28977 42.2649 9.53125 42.0732C9.77273 41.8814 9.95147 41.6293 10.0675 41.3168C10.1835 41.0043 10.2415 40.6657 10.2415 40.3011C10.2415 39.9366 10.1835 39.5968 10.0675 39.282C9.95147 38.9671 9.77273 38.7126 9.53125 38.5185C9.28977 38.3243 8.98201 38.2273 8.60795 38.2273C8.2339 38.2273 7.92614 38.3243 7.68466 38.5185C7.44318 38.7126 7.26444 38.9671 7.14844 39.282C7.03243 39.5968 6.97443 39.9366 6.97443 40.3011C6.97443 40.6657 7.03243 41.0043 7.14844 41.3168C7.26444 41.6293 7.44318 41.8814 7.68466 42.0732C7.92614 42.2649 8.2339 42.3608 8.60795 42.3608ZM14.5605 45.1591C14.1557 45.1591 13.8077 45.107 13.5165 45.0028C13.2253 44.901 12.9827 44.7661 12.7885 44.598C12.5968 44.4323 12.4441 44.2547 12.3304 44.0653L12.998 43.5966C13.0738 43.696 13.1697 43.8097 13.2857 43.9375C13.4017 44.0677 13.5603 44.1802 13.7615 44.2749C13.9651 44.3719 14.2315 44.4205 14.5605 44.4205C15.0009 44.4205 15.3643 44.3139 15.6507 44.1009C15.9372 43.8878 16.0804 43.554 16.0804 43.0994V41.9915H16.0094C15.9479 42.0909 15.8603 42.214 15.7466 42.3608C15.6354 42.5052 15.4744 42.6342 15.2637 42.7479C15.0553 42.8591 14.7736 42.9148 14.4185 42.9148C13.9782 42.9148 13.5828 42.8106 13.2324 42.6023C12.8844 42.3939 12.6086 42.0909 12.405 41.6932C12.2038 41.2955 12.1032 40.8125 12.1032 40.2443C12.1032 39.6856 12.2014 39.1991 12.3979 38.7848C12.5944 38.3681 12.8678 38.0462 13.2182 37.8189C13.5686 37.5893 13.9734 37.4744 14.4327 37.4744C14.7878 37.4744 15.0695 37.5336 15.2779 37.652C15.4886 37.768 15.6496 37.9006 15.7608 38.0497C15.8745 38.1965 15.9621 38.3172 16.0236 38.4119H16.1088V37.5455H16.9185V43.1562C16.9185 43.625 16.812 44.0062 16.5989 44.2997C16.3882 44.5956 16.1041 44.8123 15.7466 44.9496C15.3915 45.0893 14.9962 45.1591 14.5605 45.1591ZM14.5321 42.1619C14.8683 42.1619 15.1524 42.085 15.3844 41.9311C15.6164 41.7772 15.7928 41.5559 15.9135 41.267C16.0343 40.9782 16.0946 40.6326 16.0946 40.2301C16.0946 39.8371 16.0355 39.4903 15.9171 39.1896C15.7987 38.889 15.6235 38.6534 15.3915 38.483C15.1595 38.3125 14.873 38.2273 14.5321 38.2273C14.177 38.2273 13.8811 38.3172 13.6444 38.4972C13.41 38.6771 13.2336 38.9186 13.1152 39.2216C12.9992 39.5246 12.9412 39.8608 12.9412 40.2301C12.9412 40.6089 13.0004 40.9439 13.1188 41.2351C13.2395 41.5239 13.4171 41.7512 13.6515 41.9169C13.8882 42.0803 14.1818 42.1619 14.5321 42.1619ZM20.6685 43.1136C20.1761 43.1136 19.744 42.9964 19.3723 42.7621C19.003 42.5277 18.7142 42.1998 18.5059 41.7784C18.2999 41.357 18.1969 40.8646 18.1969 40.3011C18.1969 39.733 18.2999 39.237 18.5059 38.8132C18.7142 38.3894 19.003 38.0604 19.3723 37.826C19.744 37.5916 20.1761 37.4744 20.6685 37.4744C21.1609 37.4744 21.5918 37.5916 21.9611 37.826C22.3328 38.0604 22.6216 38.3894 22.8276 38.8132C23.0359 39.237 23.1401 39.733 23.1401 40.3011C23.1401 40.8646 23.0359 41.357 22.8276 41.7784C22.6216 42.1998 22.3328 42.5277 21.9611 42.7621C21.5918 42.9964 21.1609 43.1136 20.6685 43.1136ZM20.6685 42.3608C21.0426 42.3608 21.3503 42.2649 21.5918 42.0732C21.8333 41.8814 22.012 41.6293 22.128 41.3168C22.244 41.0043 22.302 40.6657 22.302 40.3011C22.302 39.9366 22.244 39.5968 22.128 39.282C22.012 38.9671 21.8333 38.7126 21.5918 38.5185C21.3503 38.3243 21.0426 38.2273 20.6685 38.2273C20.2944 38.2273 19.9867 38.3243 19.7452 38.5185C19.5037 38.7126 19.325 38.9671 19.209 39.282C19.093 39.5968 19.035 39.9366 19.035 40.3011C19.035 40.6657 19.093 41.0043 19.209 41.3168C19.325 41.6293 19.5037 41.8814 19.7452 42.0732C19.9867 42.2649 20.2944 42.3608 20.6685 42.3608ZM27.8569 40.7699V37.5455H28.695V43H27.8569V42.0767H27.8001C27.6722 42.3537 27.4734 42.5893 27.2035 42.7834C26.9336 42.9751 26.5927 43.071 26.1808 43.071C25.8398 43.071 25.5368 42.9964 25.2717 42.8473C25.0065 42.6958 24.7982 42.4685 24.6467 42.1655C24.4951 41.8601 24.4194 41.4754 24.4194 41.0114V37.5455H25.2575V40.9545C25.2575 41.3523 25.3687 41.6695 25.5913 41.9062C25.8162 42.143 26.1026 42.2614 26.4506 42.2614C26.659 42.2614 26.8709 42.2081 27.0863 42.1016C27.3041 41.995 27.4864 41.8317 27.6332 41.6115C27.7823 41.3913 27.8569 41.1108 27.8569 40.7699ZM32.6021 37.5455V38.2557H29.7754V37.5455H32.6021ZM30.5993 36.2386H31.4373V41.4375C31.4373 41.6742 31.4717 41.8518 31.5403 41.9702C31.6113 42.0862 31.7013 42.1643 31.8102 42.2045C31.9215 42.2424 32.0386 42.2614 32.1618 42.2614C32.2541 42.2614 32.3298 42.2566 32.389 42.2472C32.4482 42.2353 32.4956 42.2259 32.5311 42.2188L32.7015 42.9716C32.6447 42.9929 32.5654 43.0142 32.4636 43.0355C32.3618 43.0592 32.2328 43.071 32.0765 43.071C31.8398 43.071 31.6078 43.0201 31.3805 42.9183C31.1556 42.8165 30.9686 42.6615 30.8194 42.4531C30.6726 42.2448 30.5993 41.982 30.5993 41.6648V36.2386Z" fill="white"/>
<defs>
<clipPath id="clip0_2_91">
<rect width="24" height="24" fill="white" transform="translate(5 2)"/>
</clipPath>
</defs>
</svg>
