<svg width="172" height="26" viewBox="0 0 172 26" fill="none" xmlns="http://www.w3.org/2000/svg">
<path d="M43.782 19C43.65 19 43.542 18.958 43.458 18.874C43.374 18.79 43.332 18.682 43.332 18.55V6.85C43.332 6.718 43.374 6.61 43.458 6.526C43.542 6.442 43.65 6.4 43.782 6.4H45.42C45.6 6.4 45.732 6.442 45.816 6.526C45.9 6.61 45.954 6.676 45.978 6.724L50.784 14.23V6.85C50.784 6.718 50.826 6.61 50.91 6.526C50.994 6.442 51.096 6.4 51.216 6.4H53.052C53.184 6.4 53.292 6.442 53.376 6.526C53.46 6.61 53.502 6.718 53.502 6.85V18.55C53.502 18.67 53.46 18.778 53.376 18.874C53.292 18.958 53.184 19 53.052 19H51.396C51.216 19 51.084 18.958 51 18.874C50.928 18.778 50.874 18.712 50.838 18.676L46.05 11.404V18.55C46.05 18.682 46.008 18.79 45.924 18.874C45.84 18.958 45.732 19 45.6 19H43.782ZM55.426 19C55.318 19 55.228 18.964 55.156 18.892C55.084 18.808 55.048 18.718 55.048 18.622C55.048 18.562 55.054 18.508 55.066 18.46L59.35 6.886C59.386 6.754 59.458 6.64 59.566 6.544C59.674 6.448 59.824 6.4 60.016 6.4H62.32C62.512 6.4 62.662 6.448 62.77 6.544C62.878 6.64 62.95 6.754 62.986 6.886L67.27 18.46C67.282 18.508 67.288 18.562 67.288 18.622C67.288 18.718 67.252 18.808 67.18 18.892C67.108 18.964 67.018 19 66.91 19H65.038C64.858 19 64.726 18.958 64.642 18.874C64.558 18.79 64.504 18.712 64.48 18.64L63.706 16.624H58.63L57.856 18.64C57.832 18.712 57.778 18.79 57.694 18.874C57.61 18.958 57.478 19 57.298 19H55.426ZM59.296 14.302H63.022L61.168 9.118L59.296 14.302ZM73.5782 19.18C72.4502 19.18 71.4902 18.994 70.6982 18.622C69.9182 18.238 69.3122 17.686 68.8802 16.966C68.4482 16.234 68.2082 15.346 68.1602 14.302C68.1482 13.81 68.1422 13.282 68.1422 12.718C68.1422 12.154 68.1482 11.614 68.1602 11.098C68.2082 10.066 68.4482 9.19 68.8802 8.47C69.3242 7.738 69.9422 7.18 70.7342 6.796C71.5262 6.412 72.4742 6.22 73.5782 6.22C74.3822 6.22 75.1142 6.322 75.7742 6.526C76.4342 6.73 77.0042 7.024 77.4842 7.408C77.9642 7.792 78.3362 8.242 78.6002 8.758C78.8642 9.274 79.0082 9.85 79.0322 10.486C79.0322 10.594 78.9902 10.684 78.9062 10.756C78.8342 10.828 78.7442 10.864 78.6362 10.864H76.5842C76.4402 10.864 76.3262 10.828 76.2422 10.756C76.1582 10.684 76.0922 10.564 76.0442 10.396C75.8642 9.688 75.5642 9.202 75.1442 8.938C74.7242 8.674 74.2022 8.542 73.5782 8.542C72.8342 8.542 72.2462 8.746 71.8142 9.154C71.3822 9.562 71.1482 10.24 71.1122 11.188C71.0762 12.172 71.0762 13.18 71.1122 14.212C71.1482 15.16 71.3822 15.838 71.8142 16.246C72.2462 16.654 72.8342 16.858 73.5782 16.858C74.2022 16.858 74.7242 16.726 75.1442 16.462C75.5762 16.186 75.8762 15.7 76.0442 15.004C76.0922 14.824 76.1582 14.704 76.2422 14.644C76.3262 14.572 76.4402 14.536 76.5842 14.536H78.6362C78.7442 14.536 78.8342 14.572 78.9062 14.644C78.9902 14.716 79.0322 14.806 79.0322 14.914C79.0082 15.55 78.8642 16.126 78.6002 16.642C78.3362 17.158 77.9642 17.608 77.4842 17.992C77.0042 18.376 76.4342 18.67 75.7742 18.874C75.1142 19.078 74.3822 19.18 73.5782 19.18ZM90.0313 19.18C88.9033 19.18 87.9433 18.994 87.1513 18.622C86.3713 18.238 85.7653 17.686 85.3333 16.966C84.9013 16.234 84.6613 15.346 84.6133 14.302C84.6013 13.81 84.5953 13.282 84.5953 12.718C84.5953 12.154 84.6013 11.614 84.6133 11.098C84.6613 10.066 84.9013 9.19 85.3333 8.47C85.7773 7.738 86.3953 7.18 87.1873 6.796C87.9793 6.412 88.9273 6.22 90.0313 6.22C90.8353 6.22 91.5673 6.322 92.2273 6.526C92.8873 6.73 93.4573 7.024 93.9373 7.408C94.4173 7.792 94.7893 8.242 95.0533 8.758C95.3173 9.274 95.4613 9.85 95.4853 10.486C95.4853 10.594 95.4433 10.684 95.3593 10.756C95.2873 10.828 95.1973 10.864 95.0893 10.864H93.0373C92.8933 10.864 92.7793 10.828 92.6953 10.756C92.6113 10.684 92.5453 10.564 92.4973 10.396C92.3173 9.688 92.0173 9.202 91.5973 8.938C91.1773 8.674 90.6553 8.542 90.0313 8.542C89.2873 8.542 88.6993 8.746 88.2673 9.154C87.8353 9.562 87.6013 10.24 87.5653 11.188C87.5293 12.172 87.5293 13.18 87.5653 14.212C87.6013 15.16 87.8353 15.838 88.2673 16.246C88.6993 16.654 89.2873 16.858 90.0313 16.858C90.6553 16.858 91.1773 16.726 91.5973 16.462C92.0293 16.186 92.3293 15.7 92.4973 15.004C92.5453 14.824 92.6113 14.704 92.6953 14.644C92.7793 14.572 92.8933 14.536 93.0373 14.536H95.0893C95.1973 14.536 95.2873 14.572 95.3593 14.644C95.4433 14.716 95.4853 14.806 95.4853 14.914C95.4613 15.55 95.3173 16.126 95.0533 16.642C94.7893 17.158 94.4173 17.608 93.9373 17.992C93.4573 18.376 92.8873 18.67 92.2273 18.874C91.5673 19.078 90.8353 19.18 90.0313 19.18ZM96.6116 19C96.5036 19 96.4136 18.964 96.3416 18.892C96.2696 18.808 96.2336 18.718 96.2336 18.622C96.2336 18.562 96.2396 18.508 96.2516 18.46L100.536 6.886C100.572 6.754 100.644 6.64 100.752 6.544C100.86 6.448 101.01 6.4 101.202 6.4H103.506C103.698 6.4 103.848 6.448 103.956 6.544C104.064 6.64 104.136 6.754 104.172 6.886L108.456 18.46C108.468 18.508 108.474 18.562 108.474 18.622C108.474 18.718 108.438 18.808 108.366 18.892C108.294 18.964 108.204 19 108.096 19H106.224C106.044 19 105.912 18.958 105.828 18.874C105.744 18.79 105.69 18.712 105.666 18.64L104.892 16.624H99.8156L99.0416 18.64C99.0176 18.712 98.9636 18.79 98.8796 18.874C98.7956 18.958 98.6636 19 98.4836 19H96.6116ZM100.482 14.302H104.208L102.354 9.118L100.482 14.302ZM110.473 19C110.341 19 110.233 18.958 110.149 18.874C110.065 18.79 110.023 18.682 110.023 18.55V6.85C110.023 6.718 110.065 6.61 110.149 6.526C110.233 6.442 110.341 6.4 110.473 6.4H115.243C116.743 6.4 117.925 6.748 118.789 7.444C119.653 8.128 120.085 9.118 120.085 10.414C120.085 11.29 119.875 12.022 119.455 12.61C119.035 13.198 118.471 13.636 117.763 13.924L120.301 18.424C120.337 18.496 120.355 18.562 120.355 18.622C120.355 18.718 120.319 18.808 120.247 18.892C120.175 18.964 120.085 19 119.977 19H117.979C117.763 19 117.601 18.946 117.493 18.838C117.385 18.718 117.307 18.61 117.259 18.514L115.063 14.392H112.885V18.55C112.885 18.682 112.843 18.79 112.759 18.874C112.675 18.958 112.567 19 112.435 19H110.473ZM112.885 12.106H115.189C115.849 12.106 116.335 11.956 116.647 11.656C116.971 11.356 117.133 10.936 117.133 10.396C117.133 9.856 116.977 9.43 116.665 9.118C116.353 8.806 115.861 8.65 115.189 8.65H112.885V12.106ZM129.066 19C128.934 19 128.826 18.958 128.742 18.874C128.658 18.79 128.616 18.682 128.616 18.55V8.902H125.34C125.22 8.902 125.118 8.86 125.034 8.776C124.95 8.692 124.908 8.59 124.908 8.47V6.85C124.908 6.718 124.95 6.61 125.034 6.526C125.118 6.442 125.22 6.4 125.34 6.4H134.772C134.904 6.4 135.012 6.442 135.096 6.526C135.18 6.61 135.222 6.718 135.222 6.85V8.47C135.222 8.59 135.18 8.692 135.096 8.776C135.012 8.86 134.904 8.902 134.772 8.902H131.514V18.55C131.514 18.682 131.472 18.79 131.388 18.874C131.304 18.958 131.196 19 131.064 19H129.066ZM140.679 19C140.547 19 140.439 18.958 140.355 18.874C140.271 18.79 140.229 18.682 140.229 18.55V14.59L136.017 6.976C136.005 6.94 135.993 6.91 135.981 6.886C135.969 6.85 135.963 6.814 135.963 6.778C135.963 6.682 135.999 6.598 136.071 6.526C136.155 6.442 136.245 6.4 136.341 6.4H138.249C138.417 6.4 138.549 6.442 138.645 6.526C138.741 6.61 138.807 6.688 138.843 6.76L141.669 11.71L144.495 6.76C144.531 6.688 144.597 6.61 144.693 6.526C144.789 6.442 144.921 6.4 145.089 6.4H146.997C147.093 6.4 147.177 6.442 147.249 6.526C147.333 6.598 147.375 6.682 147.375 6.778C147.375 6.814 147.369 6.85 147.357 6.886C147.345 6.91 147.333 6.94 147.321 6.976L143.109 14.59V18.55C143.109 18.682 143.067 18.79 142.983 18.874C142.899 18.958 142.791 19 142.659 19H140.679ZM149.497 19C149.365 19 149.257 18.958 149.173 18.874C149.089 18.79 149.047 18.682 149.047 18.55V6.85C149.047 6.718 149.089 6.61 149.173 6.526C149.257 6.442 149.365 6.4 149.497 6.4H154.267C155.767 6.4 156.949 6.748 157.813 7.444C158.677 8.128 159.109 9.118 159.109 10.414C159.109 11.29 158.899 12.022 158.479 12.61C158.059 13.198 157.495 13.636 156.787 13.924L159.325 18.424C159.361 18.496 159.379 18.562 159.379 18.622C159.379 18.718 159.343 18.808 159.271 18.892C159.199 18.964 159.109 19 159.001 19H157.003C156.787 19 156.625 18.946 156.517 18.838C156.409 18.718 156.331 18.61 156.283 18.514L154.087 14.392H151.909V18.55C151.909 18.682 151.867 18.79 151.783 18.874C151.699 18.958 151.591 19 151.459 19H149.497ZM151.909 12.106H154.213C154.873 12.106 155.359 11.956 155.671 11.656C155.995 11.356 156.157 10.936 156.157 10.396C156.157 9.856 156.001 9.43 155.689 9.118C155.377 8.806 154.885 8.65 154.213 8.65H151.909V12.106ZM161.766 19C161.634 19 161.526 18.958 161.442 18.874C161.358 18.79 161.316 18.682 161.316 18.55V6.85C161.316 6.718 161.358 6.61 161.442 6.526C161.526 6.442 161.634 6.4 161.766 6.4H169.92C170.052 6.4 170.16 6.442 170.244 6.526C170.328 6.61 170.37 6.718 170.37 6.85V8.29C170.37 8.41 170.328 8.512 170.244 8.596C170.16 8.68 170.052 8.722 169.92 8.722H164.088V11.548H169.524C169.656 11.548 169.764 11.59 169.848 11.674C169.932 11.758 169.974 11.866 169.974 11.998V13.33C169.974 13.45 169.932 13.552 169.848 13.636C169.764 13.72 169.656 13.762 169.524 13.762H164.088V16.678H170.064C170.196 16.678 170.304 16.72 170.388 16.804C170.472 16.888 170.514 16.996 170.514 17.128V18.55C170.514 18.682 170.472 18.79 170.388 18.874C170.304 18.958 170.196 19 170.064 19H161.766Z" fill="#263339"/>
<path d="M4.29102 2.00078C3.97617 2.13789 3.77812 2.51875 3.83398 2.88438C3.87461 3.15859 4.20469 3.51914 4.46367 3.56992C4.56016 3.59023 5.61641 3.60547 6.81992 3.60547H9.00859L8.78008 3.76797C8.05898 4.28086 7.57656 4.67695 7.10938 5.1543L6.57617 5.6875H3.68164C1.88398 5.6875 0.716016 5.70781 0.599219 5.73828C0.492578 5.76875 0.340234 5.87539 0.238672 5.99219C-0.0507814 6.31211 -0.0710939 6.7082 0.182812 7.04336C0.431641 7.37344 0.360547 7.36328 2.9707 7.36328C4.27578 7.36328 5.33203 7.37852 5.32188 7.39883C5.3168 7.42422 5.1543 7.74922 4.97148 8.125C3.87969 10.334 3.56992 12.7105 4.04219 15.148C4.29102 16.4227 4.88008 17.9055 5.55547 18.9414L5.83477 19.373L4.52969 19.3984C3.34141 19.4238 3.20937 19.434 3.05195 19.5254C2.78281 19.6828 2.67617 19.8656 2.65078 20.1957C2.63555 20.4395 2.65078 20.5207 2.75234 20.6629C2.81328 20.7594 2.93516 20.8863 3.01133 20.9422C3.15352 21.0438 3.21445 21.0488 5.2457 21.0641L7.33281 21.0793L7.56641 21.2977C7.81523 21.5312 8.80547 22.2828 8.9375 22.3387C8.97812 22.3539 7.13984 22.3793 4.84961 22.3945C1.0207 22.4199 0.670312 22.425 0.523047 22.5063C0.274219 22.6434 0.137109 22.882 0.111719 23.202C0.0914061 23.532 0.208203 23.7555 0.502734 23.9535L0.67539 24.0703H8.22148C16.2855 24.0703 16.1586 24.0703 17.3418 23.8164C19.2969 23.3898 21.2012 22.3488 22.6535 20.9066C23.6387 19.9316 24.2531 19.0836 24.8574 17.8699C26.3758 14.8027 26.3758 11.1973 24.8574 8.13008C23.3949 5.18984 20.7898 3.06211 17.6719 2.26484C16.3516 1.92969 16.3617 1.92969 10.0902 1.92969C5.51992 1.93477 4.41289 1.94492 4.29102 2.00078ZM16.0469 6.2207C18.4133 6.60664 20.5562 8.37383 21.3535 10.6031C22.1152 12.7258 21.8512 14.95 20.6121 16.834C20.277 17.3418 19.2969 18.332 18.7891 18.6723C18.068 19.1547 17.2504 19.5102 16.3516 19.7285C15.8234 19.8605 14.4473 19.8859 13.8074 19.7844C12.3652 19.5457 11.1414 18.9109 10.075 17.8496C9.04414 16.8238 8.43477 15.6762 8.14531 14.2289C8.02344 13.6449 8.02344 12.4363 8.14023 11.8016C8.45 10.0953 9.49101 8.43477 10.8723 7.43945C11.6898 6.85039 12.7969 6.3832 13.7566 6.2207C14.3051 6.1293 15.468 6.1293 16.0469 6.2207Z" fill="#263339"/>
<path d="M13.6246 7.97265C12.7765 8.19609 12.025 8.61249 11.375 9.22187C10.8012 9.76523 10.2172 10.5828 10.3695 10.6387C10.4051 10.6539 10.8875 10.8113 11.4461 10.9891L12.4515 11.3141L12.8172 10.9434C13.1066 10.6539 13.2793 10.5269 13.6246 10.3594L14.0664 10.1461V9.00859C14.0664 8.38398 14.0511 7.87109 14.0308 7.87617C14.0054 7.87617 13.8277 7.92187 13.6246 7.97265Z" fill="#263339"/>
<path d="M15.7523 9.01876L15.7676 10.1664L16.0113 10.2629C16.3719 10.4051 16.8137 10.7199 17.098 11.0399L17.3469 11.3192L18.3828 10.9891C18.9566 10.8063 19.4441 10.6336 19.4695 10.6133C19.5254 10.5574 19.1293 9.95314 18.7586 9.54181C18.0223 8.709 16.9559 8.1047 15.9047 7.90665L15.7422 7.87111L15.7523 9.01876Z" fill="#263339"/>
<path d="M14.5742 11.7762C14.1832 11.8981 13.8023 12.2535 13.7109 12.5887C13.589 13.0406 13.6754 13.4875 13.9445 13.8024C14.4269 14.366 15.2039 14.4168 15.7574 13.9192C16.2703 13.4621 16.3007 12.6395 15.8285 12.1418C15.5136 11.8067 14.9804 11.6543 14.5742 11.7762Z" fill="#263339"/>
<path d="M9.72973 12.6039C9.65356 13.4519 9.87699 14.5437 10.2883 15.341C10.6336 16.0113 11.1668 16.6867 11.2684 16.575C11.2938 16.5496 11.5934 16.1434 11.9336 15.6711L12.5582 14.8078L12.4668 14.6555C12.1621 14.1527 12.0352 13.7719 11.959 13.1473L11.9286 12.9137L10.8774 12.5785C10.2985 12.3906 9.81098 12.2383 9.79574 12.2383C9.78051 12.2383 9.75004 12.4059 9.72973 12.6039Z" fill="#263339"/>
<path d="M18.9059 12.5785L17.8801 12.9137L17.8446 13.2488C17.7989 13.7059 17.6618 14.1375 17.4434 14.493C17.3418 14.6606 17.2809 14.8129 17.3063 14.8535C17.3266 14.884 17.6262 15.3055 17.9715 15.7828L18.6012 16.6512L18.7739 16.4633C19.3172 15.859 19.82 14.8738 19.9774 14.1172C20.1348 13.3453 20.145 12.2332 19.9926 12.2434C19.9571 12.2434 19.4696 12.3957 18.9059 12.5785Z" fill="#263339"/>
<path d="M13.259 16.707C12.8934 17.2098 12.5938 17.6312 12.5938 17.6414C12.5938 17.6566 12.7816 17.7379 13.0152 17.8242C14.2289 18.2965 15.5797 18.2965 16.7984 17.8242C17.027 17.7379 17.2148 17.6516 17.2148 17.6363C17.2148 17.6058 15.9453 15.8488 15.8996 15.8234C15.8793 15.8082 15.732 15.8336 15.5645 15.8742C15.0922 15.9808 14.493 15.9605 14.0105 15.8133C13.9496 15.798 13.7516 16.0316 13.259 16.707Z" fill="#263339"/>
</svg>
