<svg width="21" height="21" viewBox="0 0 21 21" fill="none" xmlns="http://www.w3.org/2000/svg">
<g clip-path="url(#clip0_15_14)">
<mask id="mask0_15_14" style="mask-type:alpha" maskUnits="userSpaceOnUse" x="0" y="0" width="21" height="21">
<rect width="21" height="21" fill="#628393"/>
</mask>
<g mask="url(#mask0_15_14)">
<path d="M14.6282 3.06594C14.2449 3.22418 14.2495 3.54066 14.6556 4.27033C14.8107 4.54286 14.9339 4.78462 14.9339 4.8022C14.9339 4.81978 12.3332 6.12528 9.15299 7.7033C5.96825 9.28132 3.30365 10.622 3.22152 10.6747C2.81545 10.9648 3.00251 11.5714 3.49985 11.5714C3.65954 11.5714 4.59032 11.1231 9.57275 8.64835C13.7704 6.56484 15.4632 5.74286 15.4905 5.78242C15.5088 5.80879 15.6457 6.05055 15.7871 6.31429C16.07 6.82418 16.2069 6.95605 16.4624 6.95605C16.654 6.95605 16.8685 6.81978 16.9506 6.64396C17.2517 6.02418 18 4.16044 18 4.03297C18 3.86154 17.8996 3.68572 17.7627 3.61539C17.6761 3.57143 14.9293 3 14.8198 3C14.797 3.0044 14.7103 3.03077 14.6282 3.06594Z" fill="#7192A1"/>
<path d="M14.8802 8.49293C14.6833 8.55152 14.5387 8.67164 14.4557 8.84449L14.3818 8.99683L14.388 13.2712L14.3972 17.5457L14.4803 17.6658C14.5818 17.8152 14.6833 17.8943 14.8525 17.9558C14.9632 17.9968 15.1447 17.9998 16.2152 17.9939L17.4488 17.9851L17.5995 17.8972C17.6918 17.8416 17.7841 17.7537 17.8425 17.6658L17.9348 17.5222L17.944 13.2566L17.9502 8.9939L17.8733 8.84156C17.7841 8.66578 17.6333 8.54566 17.4334 8.49C17.2365 8.4314 15.074 8.43433 14.8802 8.49293Z" fill="#7192A1"/>
<path d="M9.38304 11.2C9.17079 11.2498 8.99852 11.3816 8.88778 11.5838C8.83241 11.6804 8.82933 11.8123 8.82933 14.5867C8.82933 17.8152 8.81395 17.575 9.03543 17.7918C9.23846 17.991 9.19539 17.9851 10.5489 17.9939C11.9301 18.0027 11.9763 17.9968 12.1731 17.8006C12.4161 17.5603 12.3977 17.8328 12.3977 14.616C12.3977 11.3875 12.41 11.5779 12.167 11.367C11.9547 11.1853 11.8655 11.1736 10.6012 11.1765C9.98289 11.1795 9.43534 11.1882 9.38304 11.2Z" fill="#7192A1"/>
<path d="M3.69214 13.6318C3.53525 13.6992 3.35068 13.8926 3.31069 14.0361C3.28916 14.1094 3.27686 14.7246 3.27686 15.8027C3.27686 17.4053 3.27993 17.4609 3.34146 17.5898C3.42451 17.7656 3.50757 17.8477 3.69214 17.9297C3.84595 18 3.84902 18 5.06104 18C6.21768 18 6.28228 17.9971 6.41455 17.9385C6.59912 17.8594 6.68525 17.7803 6.77139 17.6045L6.84521 17.458V15.8027C6.84521 14.7246 6.83291 14.1094 6.81138 14.0361C6.77139 13.8926 6.58682 13.6992 6.42993 13.6318C6.31611 13.582 6.19922 13.5762 5.06104 13.5762C3.92285 13.5762 3.80596 13.582 3.69214 13.6318Z" fill="#7192A1"/>
</g>
</g>
<defs>
<clipPath id="clip0_15_14">
<rect width="21" height="21" fill="white"/>
</clipPath>
</defs>
</svg>
