<svg width="21" height="21" viewBox="0 0 21 21" fill="none" xmlns="http://www.w3.org/2000/svg">
<mask id="mask0_15_40" style="mask-type:alpha" maskUnits="userSpaceOnUse" x="0" y="0" width="21" height="21">
<rect width="21" height="21" fill="#628393"/>
</mask>
<g mask="url(#mask0_15_40)">
</g>
<path d="M4.45121 2.71817V3.03731L4.23968 3.06329C3.36761 3.16719 2.63656 3.80547 2.44359 4.61817C2.37308 4.91876 2.39164 5.39747 2.48441 5.69063L2.56605 5.94669L2.67367 5.7463C2.80726 5.50137 3.10414 5.18965 3.3639 5.02266C3.60511 4.8668 4.06156 4.71094 4.2805 4.71094H4.45121V5.0338V5.36036L5.1934 4.61817C5.6016 4.20997 5.93558 3.86485 5.93558 3.85372C5.93558 3.83887 5.6016 3.5086 5.1934 3.11524L4.45121 2.40274V2.71817Z" fill="#7192A1"/>
<path d="M8.13618 4.20996C7.4645 4.35839 6.80024 4.98925 6.33267 5.91699C5.89106 6.79277 5.62759 7.72792 5.46802 8.99706C5.37524 9.7207 5.37524 11.2793 5.46802 12.0029C5.71665 13.9586 6.29556 15.4021 7.15278 16.2223C7.48306 16.5377 7.79849 16.7158 8.15103 16.79C8.51841 16.868 12.4817 16.868 12.8491 16.79C13.2016 16.7158 13.517 16.5377 13.8473 16.2223C14.2036 15.8809 14.4522 15.5209 14.7305 14.9457C16.0442 12.2182 15.8735 7.64257 14.3706 5.38632C13.9995 4.82597 13.5801 4.4623 13.0792 4.26191L12.8565 4.17285L10.6114 4.16542C8.81899 4.158 8.31802 4.16914 8.13618 4.20996ZM11.1124 4.86679C10.3813 5.67578 9.85806 7.008 9.60571 8.70019C9.50181 9.39042 9.44614 10.923 9.49438 11.6467C9.59087 13.0012 10.0993 14.6896 10.6633 15.5098C10.7672 15.6619 10.9602 15.8994 11.0938 16.0404L11.3313 16.2965L10.7598 16.2816C10.2106 16.2705 10.1735 16.2631 9.98052 16.1629C9.67993 16.007 9.25317 15.558 9.00454 15.1387C8.21782 13.8064 7.81333 11.6021 7.97661 9.54999C8.18442 6.98203 9.11216 4.99296 10.2366 4.68867C10.3293 4.66269 10.6151 4.64042 10.8637 4.64042L11.3239 4.63671L11.1124 4.86679ZM12.6932 7.55722C13.1088 8.0248 13.3872 9.69101 13.2907 11.1271C13.209 12.2738 12.953 13.2535 12.6561 13.5207C12.4928 13.6691 12.259 13.4539 12.1143 13.0197L12.0512 12.8379L12.1848 12.6783C12.3629 12.4594 12.5596 12.0252 12.6598 11.6244C12.734 11.335 12.7452 11.2014 12.7452 10.5C12.7452 9.79863 12.734 9.66503 12.6598 9.37558C12.5559 8.96367 12.3667 8.55175 12.1922 8.35878C12.118 8.27714 12.0586 8.18437 12.0586 8.15839C12.0586 8.05078 12.311 7.57949 12.4112 7.50156C12.5188 7.41621 12.5819 7.42734 12.6932 7.55722ZM12.1774 9.4832C12.2479 9.73925 12.259 9.87285 12.259 10.5C12.2627 11.2793 12.2331 11.4574 12.0327 11.9435C11.9176 12.2219 11.9102 12.207 11.8323 11.706C11.7655 11.2719 11.7655 9.70214 11.8323 9.29394C11.9139 8.77812 11.9102 8.78183 12.0104 9.00078C12.0586 9.10468 12.1329 9.32363 12.1774 9.4832Z" fill="#7192A1"/>
<path d="M18.3375 15.2611C18.048 15.8141 17.4135 16.2371 16.7641 16.3113L16.5525 16.3373L16.5414 16.0145L16.5303 15.6916L15.7881 16.4152L15.0459 17.1426L15.7881 17.8625L16.5303 18.5824L16.5414 18.2744L16.5525 17.9664L16.7455 17.9404C17.2428 17.8773 17.5879 17.7252 17.9219 17.4172C18.1928 17.1611 18.3449 16.9533 18.4637 16.6565C18.6344 16.2334 18.6455 15.6025 18.4896 15.2463L18.4229 15.0979L18.3375 15.2611Z" fill="#7192A1"/>
</svg>
